<?xml version="1.0" standalone="no"?>
<svg xmlns:xlink="http://www.w3.org/1999/xlink" id="wave" style="transform:rotate(0deg); transition: 0.3s" viewBox="0 0 1440 300" version="1.1" xmlns="http://www.w3.org/2000/svg"><defs><linearGradient id="sw-gradient-0" x1="0" x2="0" y1="1" y2="0"><stop stop-color="rgba(253, 100, 77, 1)" offset="0%"/><stop stop-color="rgba(253, 100, 77, 1)" offset="100%"/></linearGradient></defs><path style="transform:translate(0, 0px); opacity:1" fill="url(#sw-gradient-0)" d="M0,180L18.5,175C36.9,170,74,160,111,140C147.7,120,185,90,222,75C258.5,60,295,60,332,85C369.2,110,406,160,443,155C480,150,517,90,554,65C590.8,40,628,50,665,85C701.5,120,738,180,775,190C812.3,200,849,160,886,155C923.1,150,960,180,997,175C1033.8,170,1071,130,1108,100C1144.6,70,1182,50,1218,45C1255.4,40,1292,50,1329,90C1366.2,130,1403,200,1440,230C1476.9,260,1514,250,1551,235C1587.7,220,1625,200,1662,195C1698.5,190,1735,200,1772,180C1809.2,160,1846,110,1883,100C1920,90,1957,120,1994,120C2030.8,120,2068,90,2105,110C2141.5,130,2178,200,2215,210C2252.3,220,2289,170,2326,135C2363.1,100,2400,80,2437,75C2473.8,70,2511,80,2548,110C2584.6,140,2622,190,2640,215L2658.5,240L2658.5,300L2640,300C2621.5,300,2585,300,2548,300C2510.8,300,2474,300,2437,300C2400,300,2363,300,2326,300C2289.2,300,2252,300,2215,300C2178.5,300,2142,300,2105,300C2067.7,300,2031,300,1994,300C1956.9,300,1920,300,1883,300C1846.2,300,1809,300,1772,300C1735.4,300,1698,300,1662,300C1624.6,300,1588,300,1551,300C1513.8,300,1477,300,1440,300C1403.1,300,1366,300,1329,300C1292.3,300,1255,300,1218,300C1181.5,300,1145,300,1108,300C1070.8,300,1034,300,997,300C960,300,923,300,886,300C849.2,300,812,300,775,300C738.5,300,702,300,665,300C627.7,300,591,300,554,300C516.9,300,480,300,443,300C406.2,300,369,300,332,300C295.4,300,258,300,222,300C184.6,300,148,300,111,300C73.8,300,37,300,18,300L0,300Z"/><defs><linearGradient id="sw-gradient-1" x1="0" x2="0" y1="1" y2="0"><stop stop-color="rgba(255, 151, 14, 1)" offset="0%"/><stop stop-color="rgba(255, 151, 14, 1)" offset="100%"/></linearGradient></defs><path style="transform:translate(0, 50px); opacity:0.9" fill="url(#sw-gradient-1)" d="M0,270L18.5,225C36.9,180,74,90,111,70C147.7,50,185,100,222,110C258.5,120,295,90,332,80C369.2,70,406,80,443,70C480,60,517,30,554,60C590.8,90,628,180,665,220C701.5,260,738,250,775,235C812.3,220,849,200,886,175C923.1,150,960,120,997,105C1033.8,90,1071,90,1108,100C1144.6,110,1182,130,1218,155C1255.4,180,1292,210,1329,215C1366.2,220,1403,200,1440,170C1476.9,140,1514,100,1551,80C1587.7,60,1625,60,1662,70C1698.5,80,1735,100,1772,115C1809.2,130,1846,140,1883,135C1920,130,1957,110,1994,130C2030.8,150,2068,210,2105,205C2141.5,200,2178,130,2215,110C2252.3,90,2289,120,2326,130C2363.1,140,2400,130,2437,145C2473.8,160,2511,200,2548,205C2584.6,210,2622,180,2640,165L2658.5,150L2658.5,300L2640,300C2621.5,300,2585,300,2548,300C2510.8,300,2474,300,2437,300C2400,300,2363,300,2326,300C2289.2,300,2252,300,2215,300C2178.5,300,2142,300,2105,300C2067.7,300,2031,300,1994,300C1956.9,300,1920,300,1883,300C1846.2,300,1809,300,1772,300C1735.4,300,1698,300,1662,300C1624.6,300,1588,300,1551,300C1513.8,300,1477,300,1440,300C1403.1,300,1366,300,1329,300C1292.3,300,1255,300,1218,300C1181.5,300,1145,300,1108,300C1070.8,300,1034,300,997,300C960,300,923,300,886,300C849.2,300,812,300,775,300C738.5,300,702,300,665,300C627.7,300,591,300,554,300C516.9,300,480,300,443,300C406.2,300,369,300,332,300C295.4,300,258,300,222,300C184.6,300,148,300,111,300C73.8,300,37,300,18,300L0,300Z"/><defs><linearGradient id="sw-gradient-2" x1="0" x2="0" y1="1" y2="0"><stop stop-color="rgba(255, 182, 86, 1)" offset="0%"/><stop stop-color="rgba(255, 182, 86, 1)" offset="100%"/></linearGradient></defs><path style="transform:translate(0, 100px); opacity:0.8" fill="url(#sw-gradient-2)" d="M0,270L18.5,265C36.9,260,74,250,111,210C147.7,170,185,100,222,100C258.5,100,295,170,332,180C369.2,190,406,140,443,115C480,90,517,90,554,95C590.8,100,628,110,665,105C701.5,100,738,80,775,85C812.3,90,849,120,886,125C923.1,130,960,110,997,90C1033.8,70,1071,50,1108,70C1144.6,90,1182,150,1218,150C1255.4,150,1292,90,1329,70C1366.2,50,1403,70,1440,110C1476.9,150,1514,210,1551,235C1587.7,260,1625,250,1662,205C1698.5,160,1735,80,1772,60C1809.2,40,1846,80,1883,105C1920,130,1957,140,1994,145C2030.8,150,2068,150,2105,165C2141.5,180,2178,210,2215,185C2252.3,160,2289,80,2326,85C2363.1,90,2400,180,2437,200C2473.8,220,2511,170,2548,135C2584.6,100,2622,80,2640,70L2658.5,60L2658.5,300L2640,300C2621.5,300,2585,300,2548,300C2510.8,300,2474,300,2437,300C2400,300,2363,300,2326,300C2289.2,300,2252,300,2215,300C2178.5,300,2142,300,2105,300C2067.7,300,2031,300,1994,300C1956.9,300,1920,300,1883,300C1846.2,300,1809,300,1772,300C1735.4,300,1698,300,1662,300C1624.6,300,1588,300,1551,300C1513.8,300,1477,300,1440,300C1403.1,300,1366,300,1329,300C1292.3,300,1255,300,1218,300C1181.5,300,1145,300,1108,300C1070.8,300,1034,300,997,300C960,300,923,300,886,300C849.2,300,812,300,775,300C738.5,300,702,300,665,300C627.7,300,591,300,554,300C516.9,300,480,300,443,300C406.2,300,369,300,332,300C295.4,300,258,300,222,300C184.6,300,148,300,111,300C73.8,300,37,300,18,300L0,300Z"/><defs><linearGradient id="sw-gradient-3" x1="0" x2="0" y1="1" y2="0"><stop stop-color="rgba(0, 118, 213, 1)" offset="0%"/><stop stop-color="rgba(0, 118, 213, 1)" offset="100%"/></linearGradient></defs><path style="transform:translate(0, 150px); opacity:0.7" fill="url(#sw-gradient-3)" d="M0,120L18.5,130C36.9,140,74,160,111,160C147.7,160,185,140,222,145C258.5,150,295,180,332,160C369.2,140,406,70,443,50C480,30,517,60,554,65C590.8,70,628,50,665,35C701.5,20,738,10,775,20C812.3,30,849,60,886,70C923.1,80,960,70,997,55C1033.8,40,1071,20,1108,45C1144.6,70,1182,140,1218,160C1255.4,180,1292,150,1329,120C1366.2,90,1403,60,1440,60C1476.9,60,1514,90,1551,100C1587.7,110,1625,100,1662,110C1698.5,120,1735,150,1772,180C1809.2,210,1846,240,1883,230C1920,220,1957,170,1994,160C2030.8,150,2068,180,2105,175C2141.5,170,2178,130,2215,100C2252.3,70,2289,50,2326,50C2363.1,50,2400,70,2437,70C2473.8,70,2511,50,2548,75C2584.6,100,2622,170,2640,205L2658.5,240L2658.5,300L2640,300C2621.5,300,2585,300,2548,300C2510.8,300,2474,300,2437,300C2400,300,2363,300,2326,300C2289.2,300,2252,300,2215,300C2178.5,300,2142,300,2105,300C2067.7,300,2031,300,1994,300C1956.9,300,1920,300,1883,300C1846.2,300,1809,300,1772,300C1735.4,300,1698,300,1662,300C1624.6,300,1588,300,1551,300C1513.8,300,1477,300,1440,300C1403.1,300,1366,300,1329,300C1292.3,300,1255,300,1218,300C1181.5,300,1145,300,1108,300C1070.8,300,1034,300,997,300C960,300,923,300,886,300C849.2,300,812,300,775,300C738.5,300,702,300,665,300C627.7,300,591,300,554,300C516.9,300,480,300,443,300C406.2,300,369,300,332,300C295.4,300,258,300,222,300C184.6,300,148,300,111,300C73.8,300,37,300,18,300L0,300Z"/></svg>