<?xml version="1.0" standalone="no"?>
<svg xmlns:xlink="http://www.w3.org/1999/xlink" id="wave" style="transform:rotate(0deg); transition: 0.3s" viewBox="0 0 1440 300" version="1.1" xmlns="http://www.w3.org/2000/svg"><defs><linearGradient id="sw-gradient-0" x1="0" x2="0" y1="1" y2="0"><stop stop-color="rgba(77, 159, 226, 1)" offset="0%"/><stop stop-color="rgba(77, 159, 226, 1)" offset="100%"/></linearGradient></defs><path style="transform:translate(0, 0px); opacity:1" fill="url(#sw-gradient-0)" d="M0,120L18.5,125C36.9,130,74,140,111,160C147.7,180,185,210,222,230C258.5,250,295,260,332,220C369.2,180,406,90,443,85C480,80,517,160,554,185C590.8,210,628,180,665,180C701.5,180,738,210,775,210C812.3,210,849,180,886,180C923.1,180,960,210,997,205C1033.8,200,1071,160,1108,150C1144.6,140,1182,160,1218,185C1255.4,210,1292,240,1329,255C1366.2,270,1403,270,1440,230C1476.9,190,1514,110,1551,90C1587.7,70,1625,110,1662,145C1698.5,180,1735,210,1772,225C1809.2,240,1846,240,1883,240C1920,240,1957,240,1994,205C2030.8,170,2068,100,2105,75C2141.5,50,2178,70,2215,75C2252.3,80,2289,70,2326,70C2363.1,70,2400,80,2437,115C2473.8,150,2511,210,2548,240C2584.6,270,2622,270,2640,270L2658.5,270L2658.5,300L2640,300C2621.5,300,2585,300,2548,300C2510.8,300,2474,300,2437,300C2400,300,2363,300,2326,300C2289.2,300,2252,300,2215,300C2178.5,300,2142,300,2105,300C2067.7,300,2031,300,1994,300C1956.9,300,1920,300,1883,300C1846.2,300,1809,300,1772,300C1735.4,300,1698,300,1662,300C1624.6,300,1588,300,1551,300C1513.8,300,1477,300,1440,300C1403.1,300,1366,300,1329,300C1292.3,300,1255,300,1218,300C1181.5,300,1145,300,1108,300C1070.8,300,1034,300,997,300C960,300,923,300,886,300C849.2,300,812,300,775,300C738.5,300,702,300,665,300C627.7,300,591,300,554,300C516.9,300,480,300,443,300C406.2,300,369,300,332,300C295.4,300,258,300,222,300C184.6,300,148,300,111,300C73.8,300,37,300,18,300L0,300Z"/><defs><linearGradient id="sw-gradient-1" x1="0" x2="0" y1="1" y2="0"><stop stop-color="rgba(255, 151, 14, 1)" offset="0%"/><stop stop-color="rgba(255, 151, 14, 1)" offset="100%"/></linearGradient></defs><path style="transform:translate(0, 50px); opacity:0.9" fill="url(#sw-gradient-1)" d="M0,210L18.5,185C36.9,160,74,110,111,100C147.7,90,185,120,222,155C258.5,190,295,230,332,230C369.2,230,406,190,443,145C480,100,517,50,554,70C590.8,90,628,180,665,210C701.5,240,738,210,775,170C812.3,130,849,80,886,70C923.1,60,960,90,997,130C1033.8,170,1071,220,1108,220C1144.6,220,1182,170,1218,135C1255.4,100,1292,80,1329,65C1366.2,50,1403,40,1440,60C1476.9,80,1514,130,1551,135C1587.7,140,1625,100,1662,100C1698.5,100,1735,140,1772,150C1809.2,160,1846,140,1883,155C1920,170,1957,220,1994,235C2030.8,250,2068,230,2105,215C2141.5,200,2178,190,2215,190C2252.3,190,2289,200,2326,170C2363.1,140,2400,70,2437,80C2473.8,90,2511,180,2548,190C2584.6,200,2622,130,2640,95L2658.5,60L2658.5,300L2640,300C2621.5,300,2585,300,2548,300C2510.8,300,2474,300,2437,300C2400,300,2363,300,2326,300C2289.2,300,2252,300,2215,300C2178.5,300,2142,300,2105,300C2067.7,300,2031,300,1994,300C1956.9,300,1920,300,1883,300C1846.2,300,1809,300,1772,300C1735.4,300,1698,300,1662,300C1624.6,300,1588,300,1551,300C1513.8,300,1477,300,1440,300C1403.1,300,1366,300,1329,300C1292.3,300,1255,300,1218,300C1181.5,300,1145,300,1108,300C1070.8,300,1034,300,997,300C960,300,923,300,886,300C849.2,300,812,300,775,300C738.5,300,702,300,665,300C627.7,300,591,300,554,300C516.9,300,480,300,443,300C406.2,300,369,300,332,300C295.4,300,258,300,222,300C184.6,300,148,300,111,300C73.8,300,37,300,18,300L0,300Z"/><defs><linearGradient id="sw-gradient-2" x1="0" x2="0" y1="1" y2="0"><stop stop-color="rgba(252, 33, 0, 1)" offset="0%"/><stop stop-color="rgba(252, 33, 0, 1)" offset="100%"/></linearGradient></defs><path style="transform:translate(0, 100px); opacity:0.8" fill="url(#sw-gradient-2)" d="M0,240L18.5,210C36.9,180,74,120,111,120C147.7,120,185,180,222,180C258.5,180,295,120,332,115C369.2,110,406,160,443,165C480,170,517,130,554,125C590.8,120,628,150,665,145C701.5,140,738,100,775,90C812.3,80,849,100,886,125C923.1,150,960,180,997,160C1033.8,140,1071,70,1108,80C1144.6,90,1182,180,1218,210C1255.4,240,1292,210,1329,165C1366.2,120,1403,60,1440,60C1476.9,60,1514,120,1551,130C1587.7,140,1625,100,1662,70C1698.5,40,1735,20,1772,15C1809.2,10,1846,20,1883,60C1920,100,1957,170,1994,190C2030.8,210,2068,180,2105,165C2141.5,150,2178,150,2215,170C2252.3,190,2289,230,2326,250C2363.1,270,2400,270,2437,230C2473.8,190,2511,110,2548,65C2584.6,20,2622,10,2640,5L2658.5,0L2658.5,300L2640,300C2621.5,300,2585,300,2548,300C2510.8,300,2474,300,2437,300C2400,300,2363,300,2326,300C2289.2,300,2252,300,2215,300C2178.5,300,2142,300,2105,300C2067.7,300,2031,300,1994,300C1956.9,300,1920,300,1883,300C1846.2,300,1809,300,1772,300C1735.4,300,1698,300,1662,300C1624.6,300,1588,300,1551,300C1513.8,300,1477,300,1440,300C1403.1,300,1366,300,1329,300C1292.3,300,1255,300,1218,300C1181.5,300,1145,300,1108,300C1070.8,300,1034,300,997,300C960,300,923,300,886,300C849.2,300,812,300,775,300C738.5,300,702,300,665,300C627.7,300,591,300,554,300C516.9,300,480,300,443,300C406.2,300,369,300,332,300C295.4,300,258,300,222,300C184.6,300,148,300,111,300C73.8,300,37,300,18,300L0,300Z"/></svg>