<?xml version="1.0" standalone="no"?>
<svg xmlns:xlink="http://www.w3.org/1999/xlink" id="wave" style="transform:rotate(0deg); transition: 0.3s" viewBox="0 0 1440 300" version="1.1" xmlns="http://www.w3.org/2000/svg"><defs><linearGradient id="sw-gradient-0" x1="0" x2="0" y1="1" y2="0"><stop stop-color="rgba(255, 182, 86, 1)" offset="0%"/><stop stop-color="rgba(255, 182, 86, 1)" offset="100%"/></linearGradient></defs><path style="transform:translate(0, 0px); opacity:1" fill="url(#sw-gradient-0)" d="M0,210L18.5,200C36.9,190,74,170,111,140C147.7,110,185,70,222,60C258.5,50,295,70,332,80C369.2,90,406,90,443,75C480,60,517,30,554,25C590.8,20,628,40,665,60C701.5,80,738,100,775,100C812.3,100,849,80,886,75C923.1,70,960,80,997,105C1033.8,130,1071,170,1108,165C1144.6,160,1182,110,1218,90C1255.4,70,1292,80,1329,90C1366.2,100,1403,110,1440,120C1476.9,130,1514,140,1551,120C1587.7,100,1625,50,1662,65C1698.5,80,1735,160,1772,195C1809.2,230,1846,220,1883,210C1920,200,1957,190,1994,160C2030.8,130,2068,80,2105,95C2141.5,110,2178,190,2215,205C2252.3,220,2289,170,2326,145C2363.1,120,2400,120,2437,105C2473.8,90,2511,60,2548,55C2584.6,50,2622,70,2640,80L2658.5,90L2658.5,300L2640,300C2621.5,300,2585,300,2548,300C2510.8,300,2474,300,2437,300C2400,300,2363,300,2326,300C2289.2,300,2252,300,2215,300C2178.5,300,2142,300,2105,300C2067.7,300,2031,300,1994,300C1956.9,300,1920,300,1883,300C1846.2,300,1809,300,1772,300C1735.4,300,1698,300,1662,300C1624.6,300,1588,300,1551,300C1513.8,300,1477,300,1440,300C1403.1,300,1366,300,1329,300C1292.3,300,1255,300,1218,300C1181.5,300,1145,300,1108,300C1070.8,300,1034,300,997,300C960,300,923,300,886,300C849.2,300,812,300,775,300C738.5,300,702,300,665,300C627.7,300,591,300,554,300C516.9,300,480,300,443,300C406.2,300,369,300,332,300C295.4,300,258,300,222,300C184.6,300,148,300,111,300C73.8,300,37,300,18,300L0,300Z"/><defs><linearGradient id="sw-gradient-1" x1="0" x2="0" y1="1" y2="0"><stop stop-color="rgba(252, 33, 0, 1)" offset="0%"/><stop stop-color="rgba(252, 33, 0, 1)" offset="100%"/></linearGradient></defs><path style="transform:translate(0, 50px); opacity:0.9" fill="url(#sw-gradient-1)" d="M0,240L18.5,245C36.9,250,74,260,111,265C147.7,270,185,270,222,230C258.5,190,295,110,332,95C369.2,80,406,130,443,150C480,170,517,160,554,150C590.8,140,628,130,665,110C701.5,90,738,60,775,70C812.3,80,849,130,886,150C923.1,170,960,160,997,130C1033.8,100,1071,50,1108,50C1144.6,50,1182,100,1218,140C1255.4,180,1292,210,1329,220C1366.2,230,1403,220,1440,190C1476.9,160,1514,110,1551,75C1587.7,40,1625,20,1662,25C1698.5,30,1735,60,1772,90C1809.2,120,1846,150,1883,180C1920,210,1957,240,1994,225C2030.8,210,2068,150,2105,125C2141.5,100,2178,110,2215,125C2252.3,140,2289,160,2326,165C2363.1,170,2400,160,2437,160C2473.8,160,2511,170,2548,170C2584.6,170,2622,160,2640,155L2658.5,150L2658.5,300L2640,300C2621.5,300,2585,300,2548,300C2510.8,300,2474,300,2437,300C2400,300,2363,300,2326,300C2289.2,300,2252,300,2215,300C2178.5,300,2142,300,2105,300C2067.7,300,2031,300,1994,300C1956.9,300,1920,300,1883,300C1846.2,300,1809,300,1772,300C1735.4,300,1698,300,1662,300C1624.6,300,1588,300,1551,300C1513.8,300,1477,300,1440,300C1403.1,300,1366,300,1329,300C1292.3,300,1255,300,1218,300C1181.5,300,1145,300,1108,300C1070.8,300,1034,300,997,300C960,300,923,300,886,300C849.2,300,812,300,775,300C738.5,300,702,300,665,300C627.7,300,591,300,554,300C516.9,300,480,300,443,300C406.2,300,369,300,332,300C295.4,300,258,300,222,300C184.6,300,148,300,111,300C73.8,300,37,300,18,300L0,300Z"/><defs><linearGradient id="sw-gradient-2" x1="0" x2="0" y1="1" y2="0"><stop stop-color="rgba(0, 118, 213, 1)" offset="0%"/><stop stop-color="rgba(0, 118, 213, 1)" offset="100%"/></linearGradient></defs><path style="transform:translate(0, 100px); opacity:0.8" fill="url(#sw-gradient-2)" d="M0,30L18.5,70C36.9,110,74,190,111,200C147.7,210,185,150,222,110C258.5,70,295,50,332,75C369.2,100,406,170,443,170C480,170,517,100,554,90C590.8,80,628,130,665,125C701.5,120,738,60,775,30C812.3,0,849,0,886,40C923.1,80,960,160,997,165C1033.8,170,1071,100,1108,75C1144.6,50,1182,70,1218,95C1255.4,120,1292,150,1329,170C1366.2,190,1403,200,1440,190C1476.9,180,1514,150,1551,145C1587.7,140,1625,160,1662,155C1698.5,150,1735,120,1772,125C1809.2,130,1846,170,1883,165C1920,160,1957,110,1994,80C2030.8,50,2068,40,2105,55C2141.5,70,2178,110,2215,140C2252.3,170,2289,190,2326,185C2363.1,180,2400,150,2437,150C2473.8,150,2511,180,2548,170C2584.6,160,2622,110,2640,85L2658.5,60L2658.5,300L2640,300C2621.5,300,2585,300,2548,300C2510.8,300,2474,300,2437,300C2400,300,2363,300,2326,300C2289.2,300,2252,300,2215,300C2178.5,300,2142,300,2105,300C2067.7,300,2031,300,1994,300C1956.9,300,1920,300,1883,300C1846.2,300,1809,300,1772,300C1735.4,300,1698,300,1662,300C1624.6,300,1588,300,1551,300C1513.8,300,1477,300,1440,300C1403.1,300,1366,300,1329,300C1292.3,300,1255,300,1218,300C1181.5,300,1145,300,1108,300C1070.8,300,1034,300,997,300C960,300,923,300,886,300C849.2,300,812,300,775,300C738.5,300,702,300,665,300C627.7,300,591,300,554,300C516.9,300,480,300,443,300C406.2,300,369,300,332,300C295.4,300,258,300,222,300C184.6,300,148,300,111,300C73.8,300,37,300,18,300L0,300Z"/></svg>