<?xml version="1.0" standalone="no"?>
<svg xmlns:xlink="http://www.w3.org/1999/xlink" id="wave" style="transform:rotate(0deg); transition: 0.3s" viewBox="0 0 1440 300" version="1.1" xmlns="http://www.w3.org/2000/svg"><defs><linearGradient id="sw-gradient-0" x1="0" x2="0" y1="1" y2="0"><stop stop-color="rgba(253, 100, 77, 1)" offset="0%"/><stop stop-color="rgba(253, 100, 77, 1)" offset="100%"/></linearGradient></defs><path style="transform:translate(0, 0px); opacity:1" fill="url(#sw-gradient-0)" d="M0,30L18.5,45C36.9,60,74,90,111,125C147.7,160,185,200,222,180C258.5,160,295,80,332,70C369.2,60,406,120,443,155C480,190,517,200,554,185C590.8,170,628,130,665,100C701.5,70,738,50,775,35C812.3,20,849,10,886,5C923.1,0,960,0,997,25C1033.8,50,1071,100,1108,130C1144.6,160,1182,170,1218,160C1255.4,150,1292,120,1329,130C1366.2,140,1403,190,1440,190C1476.9,190,1514,140,1551,120C1587.7,100,1625,110,1662,95C1698.5,80,1735,40,1772,65C1809.2,90,1846,180,1883,210C1920,240,1957,210,1994,200C2030.8,190,2068,200,2105,185C2141.5,170,2178,130,2215,130C2252.3,130,2289,170,2326,180C2363.1,190,2400,170,2437,170C2473.8,170,2511,190,2548,210C2584.6,230,2622,250,2640,260L2658.5,270L2658.5,300L2640,300C2621.5,300,2585,300,2548,300C2510.8,300,2474,300,2437,300C2400,300,2363,300,2326,300C2289.2,300,2252,300,2215,300C2178.5,300,2142,300,2105,300C2067.7,300,2031,300,1994,300C1956.9,300,1920,300,1883,300C1846.2,300,1809,300,1772,300C1735.4,300,1698,300,1662,300C1624.6,300,1588,300,1551,300C1513.8,300,1477,300,1440,300C1403.1,300,1366,300,1329,300C1292.3,300,1255,300,1218,300C1181.5,300,1145,300,1108,300C1070.8,300,1034,300,997,300C960,300,923,300,886,300C849.2,300,812,300,775,300C738.5,300,702,300,665,300C627.7,300,591,300,554,300C516.9,300,480,300,443,300C406.2,300,369,300,332,300C295.4,300,258,300,222,300C184.6,300,148,300,111,300C73.8,300,37,300,18,300L0,300Z"/><defs><linearGradient id="sw-gradient-1" x1="0" x2="0" y1="1" y2="0"><stop stop-color="rgba(255, 151, 14, 1)" offset="0%"/><stop stop-color="rgba(255, 151, 14, 1)" offset="100%"/></linearGradient></defs><path style="transform:translate(0, 50px); opacity:0.9" fill="url(#sw-gradient-1)" d="M0,180L18.5,155C36.9,130,74,80,111,95C147.7,110,185,190,222,205C258.5,220,295,170,332,165C369.2,160,406,200,443,180C480,160,517,80,554,75C590.8,70,628,140,665,185C701.5,230,738,250,775,240C812.3,230,849,190,886,185C923.1,180,960,210,997,230C1033.8,250,1071,260,1108,260C1144.6,260,1182,250,1218,215C1255.4,180,1292,120,1329,120C1366.2,120,1403,180,1440,175C1476.9,170,1514,100,1551,85C1587.7,70,1625,110,1662,140C1698.5,170,1735,190,1772,200C1809.2,210,1846,210,1883,200C1920,190,1957,170,1994,180C2030.8,190,2068,230,2105,230C2141.5,230,2178,190,2215,170C2252.3,150,2289,150,2326,130C2363.1,110,2400,70,2437,70C2473.8,70,2511,110,2548,125C2584.6,140,2622,130,2640,125L2658.5,120L2658.5,300L2640,300C2621.5,300,2585,300,2548,300C2510.8,300,2474,300,2437,300C2400,300,2363,300,2326,300C2289.2,300,2252,300,2215,300C2178.5,300,2142,300,2105,300C2067.7,300,2031,300,1994,300C1956.9,300,1920,300,1883,300C1846.2,300,1809,300,1772,300C1735.4,300,1698,300,1662,300C1624.6,300,1588,300,1551,300C1513.8,300,1477,300,1440,300C1403.1,300,1366,300,1329,300C1292.3,300,1255,300,1218,300C1181.5,300,1145,300,1108,300C1070.8,300,1034,300,997,300C960,300,923,300,886,300C849.2,300,812,300,775,300C738.5,300,702,300,665,300C627.7,300,591,300,554,300C516.9,300,480,300,443,300C406.2,300,369,300,332,300C295.4,300,258,300,222,300C184.6,300,148,300,111,300C73.8,300,37,300,18,300L0,300Z"/><defs><linearGradient id="sw-gradient-2" x1="0" x2="0" y1="1" y2="0"><stop stop-color="rgba(255, 182, 86, 1)" offset="0%"/><stop stop-color="rgba(255, 182, 86, 1)" offset="100%"/></linearGradient></defs><path style="transform:translate(0, 100px); opacity:0.8" fill="url(#sw-gradient-2)" d="M0,60L18.5,85C36.9,110,74,160,111,155C147.7,150,185,90,222,70C258.5,50,295,70,332,65C369.2,60,406,30,443,55C480,80,517,160,554,175C590.8,190,628,140,665,130C701.5,120,738,150,775,165C812.3,180,849,180,886,175C923.1,170,960,160,997,155C1033.8,150,1071,150,1108,170C1144.6,190,1182,230,1218,235C1255.4,240,1292,210,1329,170C1366.2,130,1403,80,1440,95C1476.9,110,1514,190,1551,205C1587.7,220,1625,170,1662,135C1698.5,100,1735,80,1772,105C1809.2,130,1846,200,1883,190C1920,180,1957,90,1994,55C2030.8,20,2068,40,2105,70C2141.5,100,2178,140,2215,170C2252.3,200,2289,220,2326,215C2363.1,210,2400,180,2437,185C2473.8,190,2511,230,2548,225C2584.6,220,2622,170,2640,145L2658.5,120L2658.5,300L2640,300C2621.5,300,2585,300,2548,300C2510.8,300,2474,300,2437,300C2400,300,2363,300,2326,300C2289.2,300,2252,300,2215,300C2178.5,300,2142,300,2105,300C2067.7,300,2031,300,1994,300C1956.9,300,1920,300,1883,300C1846.2,300,1809,300,1772,300C1735.4,300,1698,300,1662,300C1624.6,300,1588,300,1551,300C1513.8,300,1477,300,1440,300C1403.1,300,1366,300,1329,300C1292.3,300,1255,300,1218,300C1181.5,300,1145,300,1108,300C1070.8,300,1034,300,997,300C960,300,923,300,886,300C849.2,300,812,300,775,300C738.5,300,702,300,665,300C627.7,300,591,300,554,300C516.9,300,480,300,443,300C406.2,300,369,300,332,300C295.4,300,258,300,222,300C184.6,300,148,300,111,300C73.8,300,37,300,18,300L0,300Z"/><defs><linearGradient id="sw-gradient-3" x1="0" x2="0" y1="1" y2="0"><stop stop-color="rgba(0, 118, 213, 1)" offset="0%"/><stop stop-color="rgba(0, 118, 213, 1)" offset="100%"/></linearGradient></defs><path style="transform:translate(0, 150px); opacity:0.7" fill="url(#sw-gradient-3)" d="M0,60L18.5,50C36.9,40,74,20,111,10C147.7,0,185,0,222,20C258.5,40,295,80,332,100C369.2,120,406,120,443,135C480,150,517,180,554,165C590.8,150,628,90,665,60C701.5,30,738,30,775,45C812.3,60,849,90,886,90C923.1,90,960,60,997,45C1033.8,30,1071,30,1108,30C1144.6,30,1182,30,1218,50C1255.4,70,1292,110,1329,140C1366.2,170,1403,190,1440,175C1476.9,160,1514,110,1551,120C1587.7,130,1625,200,1662,235C1698.5,270,1735,270,1772,265C1809.2,260,1846,250,1883,235C1920,220,1957,200,1994,195C2030.8,190,2068,200,2105,200C2141.5,200,2178,190,2215,155C2252.3,120,2289,60,2326,75C2363.1,90,2400,180,2437,205C2473.8,230,2511,190,2548,185C2584.6,180,2622,210,2640,225L2658.5,240L2658.5,300L2640,300C2621.5,300,2585,300,2548,300C2510.8,300,2474,300,2437,300C2400,300,2363,300,2326,300C2289.2,300,2252,300,2215,300C2178.5,300,2142,300,2105,300C2067.7,300,2031,300,1994,300C1956.9,300,1920,300,1883,300C1846.2,300,1809,300,1772,300C1735.4,300,1698,300,1662,300C1624.6,300,1588,300,1551,300C1513.8,300,1477,300,1440,300C1403.1,300,1366,300,1329,300C1292.3,300,1255,300,1218,300C1181.5,300,1145,300,1108,300C1070.8,300,1034,300,997,300C960,300,923,300,886,300C849.2,300,812,300,775,300C738.5,300,702,300,665,300C627.7,300,591,300,554,300C516.9,300,480,300,443,300C406.2,300,369,300,332,300C295.4,300,258,300,222,300C184.6,300,148,300,111,300C73.8,300,37,300,18,300L0,300Z"/></svg>