<?xml version="1.0" standalone="no"?>
<svg xmlns:xlink="http://www.w3.org/1999/xlink" id="wave" style="transform:rotate(0deg); transition: 0.3s" viewBox="0 0 1440 300" version="1.1" xmlns="http://www.w3.org/2000/svg"><defs><linearGradient id="sw-gradient-0" x1="0" x2="0" y1="1" y2="0"><stop stop-color="rgba(253, 100, 77, 1)" offset="0%"/><stop stop-color="rgba(253, 100, 77, 1)" offset="100%"/></linearGradient></defs><path style="transform:translate(0, 0px); opacity:1" fill="url(#sw-gradient-0)" d="M0,240L18.5,240C36.9,240,74,240,111,220C147.7,200,185,160,222,165C258.5,170,295,220,332,200C369.2,180,406,90,443,80C480,70,517,140,554,180C590.8,220,628,230,665,195C701.5,160,738,80,775,80C812.3,80,849,160,886,180C923.1,200,960,160,997,155C1033.8,150,1071,180,1108,170C1144.6,160,1182,110,1218,80C1255.4,50,1292,40,1329,55C1366.2,70,1403,110,1440,150C1476.9,190,1514,230,1551,215C1587.7,200,1625,130,1662,125C1698.5,120,1735,180,1772,215C1809.2,250,1846,260,1883,230C1920,200,1957,130,1994,110C2030.8,90,2068,120,2105,125C2141.5,130,2178,110,2215,85C2252.3,60,2289,30,2326,35C2363.1,40,2400,80,2437,95C2473.8,110,2511,100,2548,125C2584.6,150,2622,210,2640,240L2658.5,270L2658.5,300L2640,300C2621.5,300,2585,300,2548,300C2510.8,300,2474,300,2437,300C2400,300,2363,300,2326,300C2289.2,300,2252,300,2215,300C2178.5,300,2142,300,2105,300C2067.7,300,2031,300,1994,300C1956.9,300,1920,300,1883,300C1846.2,300,1809,300,1772,300C1735.4,300,1698,300,1662,300C1624.6,300,1588,300,1551,300C1513.8,300,1477,300,1440,300C1403.1,300,1366,300,1329,300C1292.3,300,1255,300,1218,300C1181.5,300,1145,300,1108,300C1070.8,300,1034,300,997,300C960,300,923,300,886,300C849.2,300,812,300,775,300C738.5,300,702,300,665,300C627.7,300,591,300,554,300C516.9,300,480,300,443,300C406.2,300,369,300,332,300C295.4,300,258,300,222,300C184.6,300,148,300,111,300C73.8,300,37,300,18,300L0,300Z"/><defs><linearGradient id="sw-gradient-1" x1="0" x2="0" y1="1" y2="0"><stop stop-color="rgba(255, 151, 14, 1)" offset="0%"/><stop stop-color="rgba(255, 151, 14, 1)" offset="100%"/></linearGradient></defs><path style="transform:translate(0, 50px); opacity:0.9" fill="url(#sw-gradient-1)" d="M0,240L18.5,235C36.9,230,74,220,111,225C147.7,230,185,250,222,245C258.5,240,295,210,332,175C369.2,140,406,100,443,90C480,80,517,100,554,105C590.8,110,628,100,665,110C701.5,120,738,150,775,175C812.3,200,849,220,886,215C923.1,210,960,180,997,165C1033.8,150,1071,150,1108,150C1144.6,150,1182,150,1218,160C1255.4,170,1292,190,1329,210C1366.2,230,1403,250,1440,260C1476.9,270,1514,270,1551,235C1587.7,200,1625,130,1662,115C1698.5,100,1735,140,1772,150C1809.2,160,1846,140,1883,130C1920,120,1957,120,1994,145C2030.8,170,2068,220,2105,235C2141.5,250,2178,230,2215,210C2252.3,190,2289,170,2326,165C2363.1,160,2400,170,2437,190C2473.8,210,2511,240,2548,210C2584.6,180,2622,90,2640,45L2658.5,0L2658.5,300L2640,300C2621.5,300,2585,300,2548,300C2510.8,300,2474,300,2437,300C2400,300,2363,300,2326,300C2289.2,300,2252,300,2215,300C2178.5,300,2142,300,2105,300C2067.7,300,2031,300,1994,300C1956.9,300,1920,300,1883,300C1846.2,300,1809,300,1772,300C1735.4,300,1698,300,1662,300C1624.6,300,1588,300,1551,300C1513.8,300,1477,300,1440,300C1403.1,300,1366,300,1329,300C1292.3,300,1255,300,1218,300C1181.5,300,1145,300,1108,300C1070.8,300,1034,300,997,300C960,300,923,300,886,300C849.2,300,812,300,775,300C738.5,300,702,300,665,300C627.7,300,591,300,554,300C516.9,300,480,300,443,300C406.2,300,369,300,332,300C295.4,300,258,300,222,300C184.6,300,148,300,111,300C73.8,300,37,300,18,300L0,300Z"/><defs><linearGradient id="sw-gradient-2" x1="0" x2="0" y1="1" y2="0"><stop stop-color="rgba(255, 182, 86, 1)" offset="0%"/><stop stop-color="rgba(255, 182, 86, 1)" offset="100%"/></linearGradient></defs><path style="transform:translate(0, 100px); opacity:0.8" fill="url(#sw-gradient-2)" d="M0,150L18.5,160C36.9,170,74,190,111,165C147.7,140,185,70,222,70C258.5,70,295,140,332,155C369.2,170,406,130,443,120C480,110,517,130,554,150C590.8,170,628,190,665,170C701.5,150,738,90,775,85C812.3,80,849,130,886,170C923.1,210,960,240,997,230C1033.8,220,1071,170,1108,160C1144.6,150,1182,180,1218,200C1255.4,220,1292,230,1329,240C1366.2,250,1403,260,1440,250C1476.9,240,1514,210,1551,190C1587.7,170,1625,160,1662,150C1698.5,140,1735,130,1772,135C1809.2,140,1846,160,1883,140C1920,120,1957,60,1994,35C2030.8,10,2068,20,2105,25C2141.5,30,2178,30,2215,25C2252.3,20,2289,10,2326,5C2363.1,0,2400,0,2437,15C2473.8,30,2511,60,2548,65C2584.6,70,2622,50,2640,40L2658.5,30L2658.5,300L2640,300C2621.5,300,2585,300,2548,300C2510.8,300,2474,300,2437,300C2400,300,2363,300,2326,300C2289.2,300,2252,300,2215,300C2178.5,300,2142,300,2105,300C2067.7,300,2031,300,1994,300C1956.9,300,1920,300,1883,300C1846.2,300,1809,300,1772,300C1735.4,300,1698,300,1662,300C1624.6,300,1588,300,1551,300C1513.8,300,1477,300,1440,300C1403.1,300,1366,300,1329,300C1292.3,300,1255,300,1218,300C1181.5,300,1145,300,1108,300C1070.8,300,1034,300,997,300C960,300,923,300,886,300C849.2,300,812,300,775,300C738.5,300,702,300,665,300C627.7,300,591,300,554,300C516.9,300,480,300,443,300C406.2,300,369,300,332,300C295.4,300,258,300,222,300C184.6,300,148,300,111,300C73.8,300,37,300,18,300L0,300Z"/><defs><linearGradient id="sw-gradient-3" x1="0" x2="0" y1="1" y2="0"><stop stop-color="rgba(0, 118, 213, 1)" offset="0%"/><stop stop-color="rgba(0, 118, 213, 1)" offset="100%"/></linearGradient></defs><path style="transform:translate(0, 150px); opacity:0.7" fill="url(#sw-gradient-3)" d="M0,0L18.5,5C36.9,10,74,20,111,35C147.7,50,185,70,222,65C258.5,60,295,30,332,45C369.2,60,406,120,443,120C480,120,517,60,554,30C590.8,0,628,0,665,20C701.5,40,738,80,775,125C812.3,170,849,220,886,235C923.1,250,960,230,997,230C1033.8,230,1071,250,1108,215C1144.6,180,1182,90,1218,75C1255.4,60,1292,120,1329,150C1366.2,180,1403,180,1440,185C1476.9,190,1514,200,1551,195C1587.7,190,1625,170,1662,175C1698.5,180,1735,210,1772,205C1809.2,200,1846,160,1883,165C1920,170,1957,220,1994,225C2030.8,230,2068,190,2105,160C2141.5,130,2178,110,2215,130C2252.3,150,2289,210,2326,215C2363.1,220,2400,170,2437,125C2473.8,80,2511,40,2548,50C2584.6,60,2622,120,2640,150L2658.5,180L2658.5,300L2640,300C2621.5,300,2585,300,2548,300C2510.8,300,2474,300,2437,300C2400,300,2363,300,2326,300C2289.2,300,2252,300,2215,300C2178.5,300,2142,300,2105,300C2067.7,300,2031,300,1994,300C1956.9,300,1920,300,1883,300C1846.2,300,1809,300,1772,300C1735.4,300,1698,300,1662,300C1624.6,300,1588,300,1551,300C1513.8,300,1477,300,1440,300C1403.1,300,1366,300,1329,300C1292.3,300,1255,300,1218,300C1181.5,300,1145,300,1108,300C1070.8,300,1034,300,997,300C960,300,923,300,886,300C849.2,300,812,300,775,300C738.5,300,702,300,665,300C627.7,300,591,300,554,300C516.9,300,480,300,443,300C406.2,300,369,300,332,300C295.4,300,258,300,222,300C184.6,300,148,300,111,300C73.8,300,37,300,18,300L0,300Z"/></svg>