<?xml version="1.0" standalone="no"?>
<svg xmlns:xlink="http://www.w3.org/1999/xlink" id="wave" style="transform:rotate(0deg); transition: 0.3s" viewBox="0 0 1440 300" version="1.1" xmlns="http://www.w3.org/2000/svg"><defs><linearGradient id="sw-gradient-0" x1="0" x2="0" y1="1" y2="0"><stop stop-color="rgba(77, 159, 226, 1)" offset="0%"/><stop stop-color="rgba(77, 159, 226, 1)" offset="100%"/></linearGradient></defs><path style="transform:translate(0, 0px); opacity:1" fill="url(#sw-gradient-0)" d="M0,210L18.5,195C36.9,180,74,150,111,160C147.7,170,185,220,222,240C258.5,260,295,250,332,220C369.2,190,406,140,443,140C480,140,517,190,554,210C590.8,230,628,220,665,190C701.5,160,738,110,775,105C812.3,100,849,140,886,165C923.1,190,960,200,997,195C1033.8,190,1071,170,1108,170C1144.6,170,1182,190,1218,180C1255.4,170,1292,130,1329,100C1366.2,70,1403,50,1440,60C1476.9,70,1514,110,1551,110C1587.7,110,1625,70,1662,60C1698.5,50,1735,70,1772,100C1809.2,130,1846,170,1883,155C1920,140,1957,70,1994,65C2030.8,60,2068,120,2105,140C2141.5,160,2178,140,2215,150C2252.3,160,2289,200,2326,220C2363.1,240,2400,240,2437,200C2473.8,160,2511,80,2548,45C2584.6,10,2622,20,2640,25L2658.5,30L2658.5,300L2640,300C2621.5,300,2585,300,2548,300C2510.8,300,2474,300,2437,300C2400,300,2363,300,2326,300C2289.2,300,2252,300,2215,300C2178.5,300,2142,300,2105,300C2067.7,300,2031,300,1994,300C1956.9,300,1920,300,1883,300C1846.2,300,1809,300,1772,300C1735.4,300,1698,300,1662,300C1624.6,300,1588,300,1551,300C1513.8,300,1477,300,1440,300C1403.1,300,1366,300,1329,300C1292.3,300,1255,300,1218,300C1181.5,300,1145,300,1108,300C1070.8,300,1034,300,997,300C960,300,923,300,886,300C849.2,300,812,300,775,300C738.5,300,702,300,665,300C627.7,300,591,300,554,300C516.9,300,480,300,443,300C406.2,300,369,300,332,300C295.4,300,258,300,222,300C184.6,300,148,300,111,300C73.8,300,37,300,18,300L0,300Z"/><defs><linearGradient id="sw-gradient-1" x1="0" x2="0" y1="1" y2="0"><stop stop-color="rgba(255, 151, 14, 1)" offset="0%"/><stop stop-color="rgba(255, 151, 14, 1)" offset="100%"/></linearGradient></defs><path style="transform:translate(0, 50px); opacity:0.9" fill="url(#sw-gradient-1)" d="M0,90L18.5,90C36.9,90,74,90,111,115C147.7,140,185,190,222,200C258.5,210,295,180,332,160C369.2,140,406,130,443,150C480,170,517,220,554,240C590.8,260,628,250,665,245C701.5,240,738,240,775,215C812.3,190,849,140,886,130C923.1,120,960,150,997,175C1033.8,200,1071,220,1108,215C1144.6,210,1182,180,1218,185C1255.4,190,1292,230,1329,235C1366.2,240,1403,210,1440,185C1476.9,160,1514,140,1551,130C1587.7,120,1625,120,1662,100C1698.5,80,1735,40,1772,35C1809.2,30,1846,60,1883,65C1920,70,1957,50,1994,80C2030.8,110,2068,190,2105,215C2141.5,240,2178,210,2215,165C2252.3,120,2289,60,2326,40C2363.1,20,2400,40,2437,75C2473.8,110,2511,160,2548,195C2584.6,230,2622,250,2640,260L2658.5,270L2658.5,300L2640,300C2621.5,300,2585,300,2548,300C2510.8,300,2474,300,2437,300C2400,300,2363,300,2326,300C2289.2,300,2252,300,2215,300C2178.5,300,2142,300,2105,300C2067.7,300,2031,300,1994,300C1956.9,300,1920,300,1883,300C1846.2,300,1809,300,1772,300C1735.4,300,1698,300,1662,300C1624.6,300,1588,300,1551,300C1513.8,300,1477,300,1440,300C1403.1,300,1366,300,1329,300C1292.3,300,1255,300,1218,300C1181.5,300,1145,300,1108,300C1070.8,300,1034,300,997,300C960,300,923,300,886,300C849.2,300,812,300,775,300C738.5,300,702,300,665,300C627.7,300,591,300,554,300C516.9,300,480,300,443,300C406.2,300,369,300,332,300C295.4,300,258,300,222,300C184.6,300,148,300,111,300C73.8,300,37,300,18,300L0,300Z"/><defs><linearGradient id="sw-gradient-2" x1="0" x2="0" y1="1" y2="0"><stop stop-color="rgba(252, 33, 0, 1)" offset="0%"/><stop stop-color="rgba(252, 33, 0, 1)" offset="100%"/></linearGradient></defs><path style="transform:translate(0, 100px); opacity:0.8" fill="url(#sw-gradient-2)" d="M0,0L18.5,40C36.9,80,74,160,111,200C147.7,240,185,240,222,220C258.5,200,295,160,332,150C369.2,140,406,160,443,170C480,180,517,180,554,180C590.8,180,628,180,665,165C701.5,150,738,120,775,110C812.3,100,849,110,886,135C923.1,160,960,200,997,215C1033.8,230,1071,220,1108,225C1144.6,230,1182,250,1218,225C1255.4,200,1292,130,1329,85C1366.2,40,1403,20,1440,45C1476.9,70,1514,140,1551,180C1587.7,220,1625,230,1662,220C1698.5,210,1735,180,1772,160C1809.2,140,1846,130,1883,130C1920,130,1957,140,1994,135C2030.8,130,2068,110,2105,105C2141.5,100,2178,110,2215,125C2252.3,140,2289,160,2326,145C2363.1,130,2400,80,2437,95C2473.8,110,2511,190,2548,185C2584.6,180,2622,90,2640,45L2658.5,0L2658.5,300L2640,300C2621.5,300,2585,300,2548,300C2510.8,300,2474,300,2437,300C2400,300,2363,300,2326,300C2289.2,300,2252,300,2215,300C2178.5,300,2142,300,2105,300C2067.7,300,2031,300,1994,300C1956.9,300,1920,300,1883,300C1846.2,300,1809,300,1772,300C1735.4,300,1698,300,1662,300C1624.6,300,1588,300,1551,300C1513.8,300,1477,300,1440,300C1403.1,300,1366,300,1329,300C1292.3,300,1255,300,1218,300C1181.5,300,1145,300,1108,300C1070.8,300,1034,300,997,300C960,300,923,300,886,300C849.2,300,812,300,775,300C738.5,300,702,300,665,300C627.7,300,591,300,554,300C516.9,300,480,300,443,300C406.2,300,369,300,332,300C295.4,300,258,300,222,300C184.6,300,148,300,111,300C73.8,300,37,300,18,300L0,300Z"/></svg>