<?xml version="1.0" standalone="no"?>
<svg xmlns:xlink="http://www.w3.org/1999/xlink" id="wave" style="transform:rotate(0deg); transition: 0.3s" viewBox="0 0 1440 300" version="1.1" xmlns="http://www.w3.org/2000/svg"><defs><linearGradient id="sw-gradient-0" x1="0" x2="0" y1="1" y2="0"><stop stop-color="rgba(253, 100, 77, 1)" offset="0%"/><stop stop-color="rgba(253, 100, 77, 1)" offset="100%"/></linearGradient></defs><path style="transform:translate(0, 0px); opacity:1" fill="url(#sw-gradient-0)" d="M0,180L18.5,165C36.9,150,74,120,111,95C147.7,70,185,50,222,80C258.5,110,295,190,332,190C369.2,190,406,110,443,105C480,100,517,170,554,205C590.8,240,628,240,665,235C701.5,230,738,220,775,205C812.3,190,849,170,886,155C923.1,140,960,130,997,140C1033.8,150,1071,180,1108,185C1144.6,190,1182,170,1218,140C1255.4,110,1292,70,1329,75C1366.2,80,1403,130,1440,140C1476.9,150,1514,120,1551,120C1587.7,120,1625,150,1662,165C1698.5,180,1735,180,1772,170C1809.2,160,1846,140,1883,155C1920,170,1957,220,1994,220C2030.8,220,2068,170,2105,170C2141.5,170,2178,220,2215,245C2252.3,270,2289,270,2326,230C2363.1,190,2400,110,2437,75C2473.8,40,2511,50,2548,70C2584.6,90,2622,120,2640,135L2658.5,150L2658.5,300L2640,300C2621.5,300,2585,300,2548,300C2510.8,300,2474,300,2437,300C2400,300,2363,300,2326,300C2289.2,300,2252,300,2215,300C2178.5,300,2142,300,2105,300C2067.7,300,2031,300,1994,300C1956.9,300,1920,300,1883,300C1846.2,300,1809,300,1772,300C1735.4,300,1698,300,1662,300C1624.6,300,1588,300,1551,300C1513.8,300,1477,300,1440,300C1403.1,300,1366,300,1329,300C1292.3,300,1255,300,1218,300C1181.5,300,1145,300,1108,300C1070.8,300,1034,300,997,300C960,300,923,300,886,300C849.2,300,812,300,775,300C738.5,300,702,300,665,300C627.7,300,591,300,554,300C516.9,300,480,300,443,300C406.2,300,369,300,332,300C295.4,300,258,300,222,300C184.6,300,148,300,111,300C73.8,300,37,300,18,300L0,300Z"/><defs><linearGradient id="sw-gradient-1" x1="0" x2="0" y1="1" y2="0"><stop stop-color="rgba(255, 151, 14, 1)" offset="0%"/><stop stop-color="rgba(255, 151, 14, 1)" offset="100%"/></linearGradient></defs><path style="transform:translate(0, 50px); opacity:0.9" fill="url(#sw-gradient-1)" d="M0,240L18.5,210C36.9,180,74,120,111,105C147.7,90,185,120,222,140C258.5,160,295,170,332,150C369.2,130,406,80,443,85C480,90,517,150,554,175C590.8,200,628,190,665,155C701.5,120,738,60,775,30C812.3,0,849,0,886,30C923.1,60,960,120,997,135C1033.8,150,1071,120,1108,130C1144.6,140,1182,190,1218,220C1255.4,250,1292,260,1329,230C1366.2,200,1403,130,1440,90C1476.9,50,1514,40,1551,45C1587.7,50,1625,70,1662,85C1698.5,100,1735,110,1772,125C1809.2,140,1846,160,1883,145C1920,130,1957,80,1994,85C2030.8,90,2068,150,2105,165C2141.5,180,2178,150,2215,150C2252.3,150,2289,180,2326,195C2363.1,210,2400,210,2437,185C2473.8,160,2511,110,2548,75C2584.6,40,2622,20,2640,10L2658.5,0L2658.5,300L2640,300C2621.5,300,2585,300,2548,300C2510.8,300,2474,300,2437,300C2400,300,2363,300,2326,300C2289.2,300,2252,300,2215,300C2178.5,300,2142,300,2105,300C2067.7,300,2031,300,1994,300C1956.9,300,1920,300,1883,300C1846.2,300,1809,300,1772,300C1735.4,300,1698,300,1662,300C1624.6,300,1588,300,1551,300C1513.8,300,1477,300,1440,300C1403.1,300,1366,300,1329,300C1292.3,300,1255,300,1218,300C1181.5,300,1145,300,1108,300C1070.8,300,1034,300,997,300C960,300,923,300,886,300C849.2,300,812,300,775,300C738.5,300,702,300,665,300C627.7,300,591,300,554,300C516.9,300,480,300,443,300C406.2,300,369,300,332,300C295.4,300,258,300,222,300C184.6,300,148,300,111,300C73.8,300,37,300,18,300L0,300Z"/><defs><linearGradient id="sw-gradient-2" x1="0" x2="0" y1="1" y2="0"><stop stop-color="rgba(255, 182, 86, 1)" offset="0%"/><stop stop-color="rgba(255, 182, 86, 1)" offset="100%"/></linearGradient></defs><path style="transform:translate(0, 100px); opacity:0.8" fill="url(#sw-gradient-2)" d="M0,270L18.5,250C36.9,230,74,190,111,150C147.7,110,185,70,222,90C258.5,110,295,190,332,190C369.2,190,406,110,443,85C480,60,517,90,554,90C590.8,90,628,60,665,45C701.5,30,738,30,775,60C812.3,90,849,150,886,180C923.1,210,960,210,997,220C1033.8,230,1071,250,1108,230C1144.6,210,1182,150,1218,135C1255.4,120,1292,150,1329,145C1366.2,140,1403,100,1440,70C1476.9,40,1514,20,1551,25C1587.7,30,1625,60,1662,80C1698.5,100,1735,110,1772,115C1809.2,120,1846,120,1883,125C1920,130,1957,140,1994,165C2030.8,190,2068,230,2105,235C2141.5,240,2178,210,2215,185C2252.3,160,2289,140,2326,135C2363.1,130,2400,140,2437,165C2473.8,190,2511,230,2548,215C2584.6,200,2622,130,2640,95L2658.5,60L2658.5,300L2640,300C2621.5,300,2585,300,2548,300C2510.8,300,2474,300,2437,300C2400,300,2363,300,2326,300C2289.2,300,2252,300,2215,300C2178.5,300,2142,300,2105,300C2067.7,300,2031,300,1994,300C1956.9,300,1920,300,1883,300C1846.2,300,1809,300,1772,300C1735.4,300,1698,300,1662,300C1624.6,300,1588,300,1551,300C1513.8,300,1477,300,1440,300C1403.1,300,1366,300,1329,300C1292.3,300,1255,300,1218,300C1181.5,300,1145,300,1108,300C1070.8,300,1034,300,997,300C960,300,923,300,886,300C849.2,300,812,300,775,300C738.5,300,702,300,665,300C627.7,300,591,300,554,300C516.9,300,480,300,443,300C406.2,300,369,300,332,300C295.4,300,258,300,222,300C184.6,300,148,300,111,300C73.8,300,37,300,18,300L0,300Z"/><defs><linearGradient id="sw-gradient-3" x1="0" x2="0" y1="1" y2="0"><stop stop-color="rgba(0, 118, 213, 1)" offset="0%"/><stop stop-color="rgba(0, 118, 213, 1)" offset="100%"/></linearGradient></defs><path style="transform:translate(0, 150px); opacity:0.7" fill="url(#sw-gradient-3)" d="M0,0L18.5,20C36.9,40,74,80,111,80C147.7,80,185,40,222,35C258.5,30,295,60,332,65C369.2,70,406,50,443,70C480,90,517,150,554,175C590.8,200,628,190,665,160C701.5,130,738,80,775,80C812.3,80,849,130,886,160C923.1,190,960,200,997,215C1033.8,230,1071,250,1108,215C1144.6,180,1182,90,1218,65C1255.4,40,1292,80,1329,95C1366.2,110,1403,100,1440,80C1476.9,60,1514,30,1551,30C1587.7,30,1625,60,1662,85C1698.5,110,1735,130,1772,155C1809.2,180,1846,210,1883,225C1920,240,1957,240,1994,205C2030.8,170,2068,100,2105,60C2141.5,20,2178,10,2215,15C2252.3,20,2289,40,2326,80C2363.1,120,2400,180,2437,215C2473.8,250,2511,260,2548,235C2584.6,210,2622,150,2640,120L2658.5,90L2658.5,300L2640,300C2621.5,300,2585,300,2548,300C2510.8,300,2474,300,2437,300C2400,300,2363,300,2326,300C2289.2,300,2252,300,2215,300C2178.5,300,2142,300,2105,300C2067.7,300,2031,300,1994,300C1956.9,300,1920,300,1883,300C1846.2,300,1809,300,1772,300C1735.4,300,1698,300,1662,300C1624.6,300,1588,300,1551,300C1513.8,300,1477,300,1440,300C1403.1,300,1366,300,1329,300C1292.3,300,1255,300,1218,300C1181.5,300,1145,300,1108,300C1070.8,300,1034,300,997,300C960,300,923,300,886,300C849.2,300,812,300,775,300C738.5,300,702,300,665,300C627.7,300,591,300,554,300C516.9,300,480,300,443,300C406.2,300,369,300,332,300C295.4,300,258,300,222,300C184.6,300,148,300,111,300C73.8,300,37,300,18,300L0,300Z"/></svg>