<?xml version="1.0" standalone="no"?>
<svg xmlns:xlink="http://www.w3.org/1999/xlink" id="wave" style="transform:rotate(0deg); transition: 0.3s" viewBox="0 0 1440 300" version="1.1" xmlns="http://www.w3.org/2000/svg"><defs><linearGradient id="sw-gradient-0" x1="0" x2="0" y1="1" y2="0"><stop stop-color="rgba(77, 159, 226, 1)" offset="0%"/><stop stop-color="rgba(77, 159, 226, 1)" offset="100%"/></linearGradient></defs><path style="transform:translate(0, 0px); opacity:1" fill="url(#sw-gradient-0)" d="M0,30L18.5,60C36.9,90,74,150,111,160C147.7,170,185,130,222,125C258.5,120,295,150,332,150C369.2,150,406,120,443,115C480,110,517,130,554,135C590.8,140,628,130,665,130C701.5,130,738,140,775,130C812.3,120,849,90,886,70C923.1,50,960,40,997,60C1033.8,80,1071,130,1108,135C1144.6,140,1182,100,1218,75C1255.4,50,1292,40,1329,40C1366.2,40,1403,50,1440,75C1476.9,100,1514,140,1551,170C1587.7,200,1625,220,1662,225C1698.5,230,1735,220,1772,205C1809.2,190,1846,170,1883,145C1920,120,1957,90,1994,85C2030.8,80,2068,100,2105,115C2141.5,130,2178,140,2215,160C2252.3,180,2289,210,2326,215C2363.1,220,2400,200,2437,170C2473.8,140,2511,100,2548,100C2584.6,100,2622,140,2640,160L2658.5,180L2658.5,300L2640,300C2621.5,300,2585,300,2548,300C2510.8,300,2474,300,2437,300C2400,300,2363,300,2326,300C2289.2,300,2252,300,2215,300C2178.5,300,2142,300,2105,300C2067.7,300,2031,300,1994,300C1956.9,300,1920,300,1883,300C1846.2,300,1809,300,1772,300C1735.4,300,1698,300,1662,300C1624.6,300,1588,300,1551,300C1513.8,300,1477,300,1440,300C1403.1,300,1366,300,1329,300C1292.3,300,1255,300,1218,300C1181.5,300,1145,300,1108,300C1070.8,300,1034,300,997,300C960,300,923,300,886,300C849.2,300,812,300,775,300C738.5,300,702,300,665,300C627.7,300,591,300,554,300C516.9,300,480,300,443,300C406.2,300,369,300,332,300C295.4,300,258,300,222,300C184.6,300,148,300,111,300C73.8,300,37,300,18,300L0,300Z"/><defs><linearGradient id="sw-gradient-1" x1="0" x2="0" y1="1" y2="0"><stop stop-color="rgba(255, 151, 14, 1)" offset="0%"/><stop stop-color="rgba(255, 151, 14, 1)" offset="100%"/></linearGradient></defs><path style="transform:translate(0, 50px); opacity:0.9" fill="url(#sw-gradient-1)" d="M0,60L18.5,75C36.9,90,74,120,111,115C147.7,110,185,70,222,85C258.5,100,295,170,332,180C369.2,190,406,140,443,115C480,90,517,90,554,115C590.8,140,628,190,665,205C701.5,220,738,200,775,205C812.3,210,849,240,886,250C923.1,260,960,250,997,235C1033.8,220,1071,200,1108,195C1144.6,190,1182,200,1218,195C1255.4,190,1292,170,1329,150C1366.2,130,1403,110,1440,125C1476.9,140,1514,190,1551,215C1587.7,240,1625,240,1662,230C1698.5,220,1735,200,1772,200C1809.2,200,1846,220,1883,190C1920,160,1957,80,1994,50C2030.8,20,2068,40,2105,75C2141.5,110,2178,160,2215,170C2252.3,180,2289,150,2326,130C2363.1,110,2400,100,2437,80C2473.8,60,2511,30,2548,40C2584.6,50,2622,100,2640,125L2658.5,150L2658.5,300L2640,300C2621.5,300,2585,300,2548,300C2510.8,300,2474,300,2437,300C2400,300,2363,300,2326,300C2289.2,300,2252,300,2215,300C2178.5,300,2142,300,2105,300C2067.7,300,2031,300,1994,300C1956.9,300,1920,300,1883,300C1846.2,300,1809,300,1772,300C1735.4,300,1698,300,1662,300C1624.6,300,1588,300,1551,300C1513.8,300,1477,300,1440,300C1403.1,300,1366,300,1329,300C1292.3,300,1255,300,1218,300C1181.5,300,1145,300,1108,300C1070.8,300,1034,300,997,300C960,300,923,300,886,300C849.2,300,812,300,775,300C738.5,300,702,300,665,300C627.7,300,591,300,554,300C516.9,300,480,300,443,300C406.2,300,369,300,332,300C295.4,300,258,300,222,300C184.6,300,148,300,111,300C73.8,300,37,300,18,300L0,300Z"/><defs><linearGradient id="sw-gradient-2" x1="0" x2="0" y1="1" y2="0"><stop stop-color="rgba(255, 182, 86, 1)" offset="0%"/><stop stop-color="rgba(255, 182, 86, 1)" offset="100%"/></linearGradient></defs><path style="transform:translate(0, 100px); opacity:0.8" fill="url(#sw-gradient-2)" d="M0,120L18.5,120C36.9,120,74,120,111,145C147.7,170,185,220,222,235C258.5,250,295,230,332,225C369.2,220,406,230,443,210C480,190,517,140,554,120C590.8,100,628,110,665,125C701.5,140,738,160,775,150C812.3,140,849,100,886,75C923.1,50,960,40,997,70C1033.8,100,1071,170,1108,210C1144.6,250,1182,260,1218,255C1255.4,250,1292,230,1329,190C1366.2,150,1403,90,1440,75C1476.9,60,1514,90,1551,115C1587.7,140,1625,160,1662,145C1698.5,130,1735,80,1772,85C1809.2,90,1846,150,1883,190C1920,230,1957,250,1994,230C2030.8,210,2068,150,2105,150C2141.5,150,2178,210,2215,210C2252.3,210,2289,150,2326,115C2363.1,80,2400,70,2437,90C2473.8,110,2511,160,2548,195C2584.6,230,2622,250,2640,260L2658.5,270L2658.5,300L2640,300C2621.5,300,2585,300,2548,300C2510.8,300,2474,300,2437,300C2400,300,2363,300,2326,300C2289.2,300,2252,300,2215,300C2178.5,300,2142,300,2105,300C2067.7,300,2031,300,1994,300C1956.9,300,1920,300,1883,300C1846.2,300,1809,300,1772,300C1735.4,300,1698,300,1662,300C1624.6,300,1588,300,1551,300C1513.8,300,1477,300,1440,300C1403.1,300,1366,300,1329,300C1292.3,300,1255,300,1218,300C1181.5,300,1145,300,1108,300C1070.8,300,1034,300,997,300C960,300,923,300,886,300C849.2,300,812,300,775,300C738.5,300,702,300,665,300C627.7,300,591,300,554,300C516.9,300,480,300,443,300C406.2,300,369,300,332,300C295.4,300,258,300,222,300C184.6,300,148,300,111,300C73.8,300,37,300,18,300L0,300Z"/><defs><linearGradient id="sw-gradient-3" x1="0" x2="0" y1="1" y2="0"><stop stop-color="rgba(252, 33, 0, 1)" offset="0%"/><stop stop-color="rgba(252, 33, 0, 1)" offset="100%"/></linearGradient></defs><path style="transform:translate(0, 150px); opacity:0.7" fill="url(#sw-gradient-3)" d="M0,90L18.5,110C36.9,130,74,170,111,185C147.7,200,185,190,222,200C258.5,210,295,240,332,230C369.2,220,406,170,443,165C480,160,517,200,554,215C590.8,230,628,220,665,205C701.5,190,738,170,775,160C812.3,150,849,150,886,135C923.1,120,960,90,997,65C1033.8,40,1071,20,1108,10C1144.6,0,1182,0,1218,15C1255.4,30,1292,60,1329,85C1366.2,110,1403,130,1440,145C1476.9,160,1514,170,1551,150C1587.7,130,1625,80,1662,65C1698.5,50,1735,70,1772,110C1809.2,150,1846,210,1883,210C1920,210,1957,150,1994,120C2030.8,90,2068,90,2105,105C2141.5,120,2178,150,2215,140C2252.3,130,2289,80,2326,55C2363.1,30,2400,30,2437,25C2473.8,20,2511,10,2548,20C2584.6,30,2622,60,2640,75L2658.5,90L2658.5,300L2640,300C2621.5,300,2585,300,2548,300C2510.8,300,2474,300,2437,300C2400,300,2363,300,2326,300C2289.2,300,2252,300,2215,300C2178.5,300,2142,300,2105,300C2067.7,300,2031,300,1994,300C1956.9,300,1920,300,1883,300C1846.2,300,1809,300,1772,300C1735.4,300,1698,300,1662,300C1624.6,300,1588,300,1551,300C1513.8,300,1477,300,1440,300C1403.1,300,1366,300,1329,300C1292.3,300,1255,300,1218,300C1181.5,300,1145,300,1108,300C1070.8,300,1034,300,997,300C960,300,923,300,886,300C849.2,300,812,300,775,300C738.5,300,702,300,665,300C627.7,300,591,300,554,300C516.9,300,480,300,443,300C406.2,300,369,300,332,300C295.4,300,258,300,222,300C184.6,300,148,300,111,300C73.8,300,37,300,18,300L0,300Z"/></svg>  