<?xml version="1.0" standalone="no"?>
<svg xmlns:xlink="http://www.w3.org/1999/xlink" id="wave" style="transform:rotate(0deg); transition: 0.3s" viewBox="0 0 1440 300" version="1.1" xmlns="http://www.w3.org/2000/svg"><defs><linearGradient id="sw-gradient-0" x1="0" x2="0" y1="1" y2="0"><stop stop-color="rgba(255, 182, 86, 1)" offset="0%"/><stop stop-color="rgba(255, 182, 86, 1)" offset="100%"/></linearGradient></defs><path style="transform:translate(0, 0px); opacity:1" fill="url(#sw-gradient-0)" d="M0,90L18.5,105C36.9,120,74,150,111,170C147.7,190,185,200,222,170C258.5,140,295,70,332,40C369.2,10,406,20,443,65C480,110,517,190,554,185C590.8,180,628,90,665,80C701.5,70,738,140,775,185C812.3,230,849,250,886,240C923.1,230,960,190,997,160C1033.8,130,1071,110,1108,95C1144.6,80,1182,70,1218,95C1255.4,120,1292,180,1329,210C1366.2,240,1403,240,1440,225C1476.9,210,1514,180,1551,175C1587.7,170,1625,190,1662,180C1698.5,170,1735,130,1772,100C1809.2,70,1846,50,1883,55C1920,60,1957,90,1994,100C2030.8,110,2068,100,2105,100C2141.5,100,2178,110,2215,115C2252.3,120,2289,120,2326,145C2363.1,170,2400,220,2437,225C2473.8,230,2511,190,2548,180C2584.6,170,2622,190,2640,200L2658.5,210L2658.5,300L2640,300C2621.5,300,2585,300,2548,300C2510.8,300,2474,300,2437,300C2400,300,2363,300,2326,300C2289.2,300,2252,300,2215,300C2178.5,300,2142,300,2105,300C2067.7,300,2031,300,1994,300C1956.9,300,1920,300,1883,300C1846.2,300,1809,300,1772,300C1735.4,300,1698,300,1662,300C1624.6,300,1588,300,1551,300C1513.8,300,1477,300,1440,300C1403.1,300,1366,300,1329,300C1292.3,300,1255,300,1218,300C1181.5,300,1145,300,1108,300C1070.8,300,1034,300,997,300C960,300,923,300,886,300C849.2,300,812,300,775,300C738.5,300,702,300,665,300C627.7,300,591,300,554,300C516.9,300,480,300,443,300C406.2,300,369,300,332,300C295.4,300,258,300,222,300C184.6,300,148,300,111,300C73.8,300,37,300,18,300L0,300Z"/><defs><linearGradient id="sw-gradient-1" x1="0" x2="0" y1="1" y2="0"><stop stop-color="rgba(77, 159, 226, 1)" offset="0%"/><stop stop-color="rgba(77, 159, 226, 1)" offset="100%"/></linearGradient></defs><path style="transform:translate(0, 50px); opacity:0.9" fill="url(#sw-gradient-1)" d="M0,0L18.5,20C36.9,40,74,80,111,110C147.7,140,185,160,222,170C258.5,180,295,180,332,160C369.2,140,406,100,443,90C480,80,517,100,554,135C590.8,170,628,220,665,220C701.5,220,738,170,775,165C812.3,160,849,200,886,195C923.1,190,960,140,997,110C1033.8,80,1071,70,1108,100C1144.6,130,1182,200,1218,225C1255.4,250,1292,230,1329,210C1366.2,190,1403,170,1440,160C1476.9,150,1514,150,1551,170C1587.7,190,1625,230,1662,225C1698.5,220,1735,170,1772,145C1809.2,120,1846,120,1883,110C1920,100,1957,80,1994,85C2030.8,90,2068,120,2105,130C2141.5,140,2178,130,2215,105C2252.3,80,2289,40,2326,45C2363.1,50,2400,100,2437,105C2473.8,110,2511,70,2548,65C2584.6,60,2622,90,2640,105L2658.5,120L2658.5,300L2640,300C2621.5,300,2585,300,2548,300C2510.8,300,2474,300,2437,300C2400,300,2363,300,2326,300C2289.2,300,2252,300,2215,300C2178.5,300,2142,300,2105,300C2067.7,300,2031,300,1994,300C1956.9,300,1920,300,1883,300C1846.2,300,1809,300,1772,300C1735.4,300,1698,300,1662,300C1624.6,300,1588,300,1551,300C1513.8,300,1477,300,1440,300C1403.1,300,1366,300,1329,300C1292.3,300,1255,300,1218,300C1181.5,300,1145,300,1108,300C1070.8,300,1034,300,997,300C960,300,923,300,886,300C849.2,300,812,300,775,300C738.5,300,702,300,665,300C627.7,300,591,300,554,300C516.9,300,480,300,443,300C406.2,300,369,300,332,300C295.4,300,258,300,222,300C184.6,300,148,300,111,300C73.8,300,37,300,18,300L0,300Z"/><defs><linearGradient id="sw-gradient-2" x1="0" x2="0" y1="1" y2="0"><stop stop-color="rgba(0, 118, 213, 1)" offset="0%"/><stop stop-color="rgba(0, 118, 213, 1)" offset="100%"/></linearGradient></defs><path style="transform:translate(0, 100px); opacity:0.8" fill="url(#sw-gradient-2)" d="M0,30L18.5,55C36.9,80,74,130,111,140C147.7,150,185,120,222,120C258.5,120,295,150,332,155C369.2,160,406,140,443,135C480,130,517,140,554,125C590.8,110,628,70,665,70C701.5,70,738,110,775,150C812.3,190,849,230,886,210C923.1,190,960,110,997,100C1033.8,90,1071,150,1108,190C1144.6,230,1182,250,1218,255C1255.4,260,1292,250,1329,250C1366.2,250,1403,260,1440,235C1476.9,210,1514,150,1551,120C1587.7,90,1625,90,1662,95C1698.5,100,1735,110,1772,100C1809.2,90,1846,60,1883,70C1920,80,1957,130,1994,145C2030.8,160,2068,140,2105,140C2141.5,140,2178,160,2215,185C2252.3,210,2289,240,2326,240C2363.1,240,2400,210,2437,185C2473.8,160,2511,140,2548,120C2584.6,100,2622,80,2640,70L2658.5,60L2658.5,300L2640,300C2621.5,300,2585,300,2548,300C2510.8,300,2474,300,2437,300C2400,300,2363,300,2326,300C2289.2,300,2252,300,2215,300C2178.5,300,2142,300,2105,300C2067.7,300,2031,300,1994,300C1956.9,300,1920,300,1883,300C1846.2,300,1809,300,1772,300C1735.4,300,1698,300,1662,300C1624.6,300,1588,300,1551,300C1513.8,300,1477,300,1440,300C1403.1,300,1366,300,1329,300C1292.3,300,1255,300,1218,300C1181.5,300,1145,300,1108,300C1070.8,300,1034,300,997,300C960,300,923,300,886,300C849.2,300,812,300,775,300C738.5,300,702,300,665,300C627.7,300,591,300,554,300C516.9,300,480,300,443,300C406.2,300,369,300,332,300C295.4,300,258,300,222,300C184.6,300,148,300,111,300C73.8,300,37,300,18,300L0,300Z"/><defs><linearGradient id="sw-gradient-3" x1="0" x2="0" y1="1" y2="0"><stop stop-color="rgba(252, 33, 0, 1)" offset="0%"/><stop stop-color="rgba(252, 33, 0, 1)" offset="100%"/></linearGradient></defs><path style="transform:translate(0, 150px); opacity:0.7" fill="url(#sw-gradient-3)" d="M0,150L18.5,155C36.9,160,74,170,111,180C147.7,190,185,200,222,180C258.5,160,295,110,332,80C369.2,50,406,40,443,35C480,30,517,30,554,35C590.8,40,628,50,665,60C701.5,70,738,80,775,95C812.3,110,849,130,886,140C923.1,150,960,150,997,160C1033.8,170,1071,190,1108,210C1144.6,230,1182,250,1218,245C1255.4,240,1292,210,1329,175C1366.2,140,1403,100,1440,105C1476.9,110,1514,160,1551,160C1587.7,160,1625,110,1662,110C1698.5,110,1735,160,1772,190C1809.2,220,1846,230,1883,240C1920,250,1957,260,1994,230C2030.8,200,2068,130,2105,90C2141.5,50,2178,40,2215,70C2252.3,100,2289,170,2326,165C2363.1,160,2400,80,2437,65C2473.8,50,2511,100,2548,100C2584.6,100,2622,50,2640,25L2658.5,0L2658.5,300L2640,300C2621.5,300,2585,300,2548,300C2510.8,300,2474,300,2437,300C2400,300,2363,300,2326,300C2289.2,300,2252,300,2215,300C2178.5,300,2142,300,2105,300C2067.7,300,2031,300,1994,300C1956.9,300,1920,300,1883,300C1846.2,300,1809,300,1772,300C1735.4,300,1698,300,1662,300C1624.6,300,1588,300,1551,300C1513.8,300,1477,300,1440,300C1403.1,300,1366,300,1329,300C1292.3,300,1255,300,1218,300C1181.5,300,1145,300,1108,300C1070.8,300,1034,300,997,300C960,300,923,300,886,300C849.2,300,812,300,775,300C738.5,300,702,300,665,300C627.7,300,591,300,554,300C516.9,300,480,300,443,300C406.2,300,369,300,332,300C295.4,300,258,300,222,300C184.6,300,148,300,111,300C73.8,300,37,300,18,300L0,300Z"/></svg>