<?xml version="1.0" standalone="no"?>
<svg xmlns:xlink="http://www.w3.org/1999/xlink" id="wave" style="transform:rotate(0deg); transition: 0.3s" viewBox="0 0 1440 300" version="1.1" xmlns="http://www.w3.org/2000/svg"><defs><linearGradient id="sw-gradient-0" x1="0" x2="0" y1="1" y2="0"><stop stop-color="rgba(253, 100, 77, 1)" offset="0%"/><stop stop-color="rgba(253, 100, 77, 1)" offset="100%"/></linearGradient></defs><path style="transform:translate(0, 0px); opacity:1" fill="url(#sw-gradient-0)" d="M0,120L18.5,110C36.9,100,74,80,111,105C147.7,130,185,200,222,225C258.5,250,295,230,332,200C369.2,170,406,130,443,110C480,90,517,90,554,110C590.8,130,628,170,665,190C701.5,210,738,210,775,220C812.3,230,849,250,886,235C923.1,220,960,170,997,140C1033.8,110,1071,100,1108,95C1144.6,90,1182,90,1218,80C1255.4,70,1292,50,1329,40C1366.2,30,1403,30,1440,40C1476.9,50,1514,70,1551,75C1587.7,80,1625,70,1662,100C1698.5,130,1735,200,1772,235C1809.2,270,1846,270,1883,255C1920,240,1957,210,1994,190C2030.8,170,2068,160,2105,165C2141.5,170,2178,190,2215,210C2252.3,230,2289,250,2326,220C2363.1,190,2400,110,2437,70C2473.8,30,2511,30,2548,55C2584.6,80,2622,130,2640,155L2658.5,180L2658.5,300L2640,300C2621.5,300,2585,300,2548,300C2510.8,300,2474,300,2437,300C2400,300,2363,300,2326,300C2289.2,300,2252,300,2215,300C2178.5,300,2142,300,2105,300C2067.7,300,2031,300,1994,300C1956.9,300,1920,300,1883,300C1846.2,300,1809,300,1772,300C1735.4,300,1698,300,1662,300C1624.6,300,1588,300,1551,300C1513.8,300,1477,300,1440,300C1403.1,300,1366,300,1329,300C1292.3,300,1255,300,1218,300C1181.5,300,1145,300,1108,300C1070.8,300,1034,300,997,300C960,300,923,300,886,300C849.2,300,812,300,775,300C738.5,300,702,300,665,300C627.7,300,591,300,554,300C516.9,300,480,300,443,300C406.2,300,369,300,332,300C295.4,300,258,300,222,300C184.6,300,148,300,111,300C73.8,300,37,300,18,300L0,300Z"/><defs><linearGradient id="sw-gradient-1" x1="0" x2="0" y1="1" y2="0"><stop stop-color="rgba(0, 118, 213, 1)" offset="0%"/><stop stop-color="rgba(0, 118, 213, 1)" offset="100%"/></linearGradient></defs><path style="transform:translate(0, 50px); opacity:0.9" fill="url(#sw-gradient-1)" d="M0,270L18.5,270C36.9,270,74,270,111,240C147.7,210,185,150,222,125C258.5,100,295,110,332,125C369.2,140,406,160,443,170C480,180,517,180,554,160C590.8,140,628,100,665,80C701.5,60,738,60,775,85C812.3,110,849,160,886,165C923.1,170,960,130,997,130C1033.8,130,1071,170,1108,165C1144.6,160,1182,110,1218,95C1255.4,80,1292,100,1329,105C1366.2,110,1403,100,1440,120C1476.9,140,1514,190,1551,195C1587.7,200,1625,160,1662,145C1698.5,130,1735,140,1772,160C1809.2,180,1846,210,1883,185C1920,160,1957,80,1994,80C2030.8,80,2068,160,2105,170C2141.5,180,2178,120,2215,95C2252.3,70,2289,80,2326,95C2363.1,110,2400,130,2437,130C2473.8,130,2511,110,2548,110C2584.6,110,2622,130,2640,140L2658.5,150L2658.5,300L2640,300C2621.5,300,2585,300,2548,300C2510.8,300,2474,300,2437,300C2400,300,2363,300,2326,300C2289.2,300,2252,300,2215,300C2178.5,300,2142,300,2105,300C2067.7,300,2031,300,1994,300C1956.9,300,1920,300,1883,300C1846.2,300,1809,300,1772,300C1735.4,300,1698,300,1662,300C1624.6,300,1588,300,1551,300C1513.8,300,1477,300,1440,300C1403.1,300,1366,300,1329,300C1292.3,300,1255,300,1218,300C1181.5,300,1145,300,1108,300C1070.8,300,1034,300,997,300C960,300,923,300,886,300C849.2,300,812,300,775,300C738.5,300,702,300,665,300C627.7,300,591,300,554,300C516.9,300,480,300,443,300C406.2,300,369,300,332,300C295.4,300,258,300,222,300C184.6,300,148,300,111,300C73.8,300,37,300,18,300L0,300Z"/><defs><linearGradient id="sw-gradient-2" x1="0" x2="0" y1="1" y2="0"><stop stop-color="rgba(255, 151, 14, 1)" offset="0%"/><stop stop-color="rgba(255, 151, 14, 1)" offset="100%"/></linearGradient></defs><path style="transform:translate(0, 100px); opacity:0.8" fill="url(#sw-gradient-2)" d="M0,0L18.5,5C36.9,10,74,20,111,45C147.7,70,185,110,222,140C258.5,170,295,190,332,180C369.2,170,406,130,443,105C480,80,517,70,554,75C590.8,80,628,100,665,95C701.5,90,738,60,775,80C812.3,100,849,170,886,200C923.1,230,960,220,997,205C1033.8,190,1071,170,1108,160C1144.6,150,1182,150,1218,155C1255.4,160,1292,170,1329,145C1366.2,120,1403,60,1440,60C1476.9,60,1514,120,1551,150C1587.7,180,1625,180,1662,165C1698.5,150,1735,120,1772,130C1809.2,140,1846,190,1883,175C1920,160,1957,80,1994,80C2030.8,80,2068,160,2105,160C2141.5,160,2178,80,2215,80C2252.3,80,2289,160,2326,205C2363.1,250,2400,260,2437,220C2473.8,180,2511,90,2548,80C2584.6,70,2622,140,2640,175L2658.5,210L2658.5,300L2640,300C2621.5,300,2585,300,2548,300C2510.8,300,2474,300,2437,300C2400,300,2363,300,2326,300C2289.2,300,2252,300,2215,300C2178.5,300,2142,300,2105,300C2067.7,300,2031,300,1994,300C1956.9,300,1920,300,1883,300C1846.2,300,1809,300,1772,300C1735.4,300,1698,300,1662,300C1624.6,300,1588,300,1551,300C1513.8,300,1477,300,1440,300C1403.1,300,1366,300,1329,300C1292.3,300,1255,300,1218,300C1181.5,300,1145,300,1108,300C1070.8,300,1034,300,997,300C960,300,923,300,886,300C849.2,300,812,300,775,300C738.5,300,702,300,665,300C627.7,300,591,300,554,300C516.9,300,480,300,443,300C406.2,300,369,300,332,300C295.4,300,258,300,222,300C184.6,300,148,300,111,300C73.8,300,37,300,18,300L0,300Z"/></svg>