<?xml version="1.0" standalone="no"?>
<svg xmlns:xlink="http://www.w3.org/1999/xlink" id="wave" style="transform:rotate(0deg); transition: 0.3s" viewBox="0 0 1440 300" version="1.1" xmlns="http://www.w3.org/2000/svg"><defs><linearGradient id="sw-gradient-0" x1="0" x2="0" y1="1" y2="0"><stop stop-color="rgba(255, 182, 86, 1)" offset="0%"/><stop stop-color="rgba(255, 182, 86, 1)" offset="100%"/></linearGradient></defs><path style="transform:translate(0, 0px); opacity:1" fill="url(#sw-gradient-0)" d="M0,0L18.5,25C36.9,50,74,100,111,105C147.7,110,185,70,222,75C258.5,80,295,130,332,155C369.2,180,406,180,443,175C480,170,517,160,554,145C590.8,130,628,110,665,105C701.5,100,738,110,775,110C812.3,110,849,100,886,120C923.1,140,960,190,997,205C1033.8,220,1071,200,1108,190C1144.6,180,1182,180,1218,155C1255.4,130,1292,80,1329,55C1366.2,30,1403,30,1440,70C1476.9,110,1514,190,1551,225C1587.7,260,1625,250,1662,235C1698.5,220,1735,200,1772,175C1809.2,150,1846,120,1883,110C1920,100,1957,110,1994,135C2030.8,160,2068,200,2105,210C2141.5,220,2178,200,2215,185C2252.3,170,2289,160,2326,155C2363.1,150,2400,150,2437,130C2473.8,110,2511,70,2548,50C2584.6,30,2622,30,2640,30L2658.5,30L2658.5,300L2640,300C2621.5,300,2585,300,2548,300C2510.8,300,2474,300,2437,300C2400,300,2363,300,2326,300C2289.2,300,2252,300,2215,300C2178.5,300,2142,300,2105,300C2067.7,300,2031,300,1994,300C1956.9,300,1920,300,1883,300C1846.2,300,1809,300,1772,300C1735.4,300,1698,300,1662,300C1624.6,300,1588,300,1551,300C1513.8,300,1477,300,1440,300C1403.1,300,1366,300,1329,300C1292.3,300,1255,300,1218,300C1181.5,300,1145,300,1108,300C1070.8,300,1034,300,997,300C960,300,923,300,886,300C849.2,300,812,300,775,300C738.5,300,702,300,665,300C627.7,300,591,300,554,300C516.9,300,480,300,443,300C406.2,300,369,300,332,300C295.4,300,258,300,222,300C184.6,300,148,300,111,300C73.8,300,37,300,18,300L0,300Z"/><defs><linearGradient id="sw-gradient-1" x1="0" x2="0" y1="1" y2="0"><stop stop-color="rgba(252, 33, 0, 1)" offset="0%"/><stop stop-color="rgba(252, 33, 0, 1)" offset="100%"/></linearGradient></defs><path style="transform:translate(0, 50px); opacity:0.9" fill="url(#sw-gradient-1)" d="M0,270L18.5,245C36.9,220,74,170,111,140C147.7,110,185,100,222,115C258.5,130,295,170,332,165C369.2,160,406,110,443,120C480,130,517,200,554,235C590.8,270,628,270,665,240C701.5,210,738,150,775,115C812.3,80,849,70,886,85C923.1,100,960,140,997,150C1033.8,160,1071,140,1108,155C1144.6,170,1182,220,1218,205C1255.4,190,1292,110,1329,100C1366.2,90,1403,150,1440,160C1476.9,170,1514,130,1551,120C1587.7,110,1625,130,1662,115C1698.5,100,1735,50,1772,50C1809.2,50,1846,100,1883,140C1920,180,1957,210,1994,200C2030.8,190,2068,140,2105,120C2141.5,100,2178,110,2215,135C2252.3,160,2289,200,2326,205C2363.1,210,2400,180,2437,185C2473.8,190,2511,230,2548,215C2584.6,200,2622,130,2640,95L2658.5,60L2658.5,300L2640,300C2621.5,300,2585,300,2548,300C2510.8,300,2474,300,2437,300C2400,300,2363,300,2326,300C2289.2,300,2252,300,2215,300C2178.5,300,2142,300,2105,300C2067.7,300,2031,300,1994,300C1956.9,300,1920,300,1883,300C1846.2,300,1809,300,1772,300C1735.4,300,1698,300,1662,300C1624.6,300,1588,300,1551,300C1513.8,300,1477,300,1440,300C1403.1,300,1366,300,1329,300C1292.3,300,1255,300,1218,300C1181.5,300,1145,300,1108,300C1070.8,300,1034,300,997,300C960,300,923,300,886,300C849.2,300,812,300,775,300C738.5,300,702,300,665,300C627.7,300,591,300,554,300C516.9,300,480,300,443,300C406.2,300,369,300,332,300C295.4,300,258,300,222,300C184.6,300,148,300,111,300C73.8,300,37,300,18,300L0,300Z"/><defs><linearGradient id="sw-gradient-2" x1="0" x2="0" y1="1" y2="0"><stop stop-color="rgba(0, 118, 213, 1)" offset="0%"/><stop stop-color="rgba(0, 118, 213, 1)" offset="100%"/></linearGradient></defs><path style="transform:translate(0, 100px); opacity:0.8" fill="url(#sw-gradient-2)" d="M0,90L18.5,110C36.9,130,74,170,111,155C147.7,140,185,70,222,75C258.5,80,295,160,332,180C369.2,200,406,160,443,150C480,140,517,160,554,160C590.8,160,628,140,665,150C701.5,160,738,200,775,180C812.3,160,849,80,886,45C923.1,10,960,20,997,40C1033.8,60,1071,90,1108,100C1144.6,110,1182,100,1218,105C1255.4,110,1292,130,1329,115C1366.2,100,1403,50,1440,45C1476.9,40,1514,80,1551,110C1587.7,140,1625,160,1662,145C1698.5,130,1735,80,1772,95C1809.2,110,1846,190,1883,190C1920,190,1957,110,1994,100C2030.8,90,2068,150,2105,160C2141.5,170,2178,130,2215,125C2252.3,120,2289,150,2326,175C2363.1,200,2400,220,2437,195C2473.8,170,2511,100,2548,80C2584.6,60,2622,90,2640,105L2658.5,120L2658.5,300L2640,300C2621.5,300,2585,300,2548,300C2510.8,300,2474,300,2437,300C2400,300,2363,300,2326,300C2289.2,300,2252,300,2215,300C2178.5,300,2142,300,2105,300C2067.7,300,2031,300,1994,300C1956.9,300,1920,300,1883,300C1846.2,300,1809,300,1772,300C1735.4,300,1698,300,1662,300C1624.6,300,1588,300,1551,300C1513.8,300,1477,300,1440,300C1403.1,300,1366,300,1329,300C1292.3,300,1255,300,1218,300C1181.5,300,1145,300,1108,300C1070.8,300,1034,300,997,300C960,300,923,300,886,300C849.2,300,812,300,775,300C738.5,300,702,300,665,300C627.7,300,591,300,554,300C516.9,300,480,300,443,300C406.2,300,369,300,332,300C295.4,300,258,300,222,300C184.6,300,148,300,111,300C73.8,300,37,300,18,300L0,300Z"/></svg>