<?xml version="1.0" standalone="no"?>
<svg xmlns:xlink="http://www.w3.org/1999/xlink" id="wave" style="transform:rotate(0deg); transition: 0.3s" viewBox="0 0 1440 300" version="1.1" xmlns="http://www.w3.org/2000/svg"><defs><linearGradient id="sw-gradient-0" x1="0" x2="0" y1="1" y2="0"><stop stop-color="rgba(77, 159, 226, 1)" offset="0%"/><stop stop-color="rgba(77, 159, 226, 1)" offset="100%"/></linearGradient></defs><path style="transform:translate(0, 0px); opacity:1" fill="url(#sw-gradient-0)" d="M0,210L18.5,180C36.9,150,74,90,111,100C147.7,110,185,190,222,225C258.5,260,295,250,332,210C369.2,170,406,100,443,65C480,30,517,30,554,65C590.8,100,628,170,665,180C701.5,190,738,140,775,105C812.3,70,849,50,886,35C923.1,20,960,10,997,10C1033.8,10,1071,20,1108,65C1144.6,110,1182,190,1218,185C1255.4,180,1292,90,1329,55C1366.2,20,1403,40,1440,55C1476.9,70,1514,80,1551,70C1587.7,60,1625,30,1662,15C1698.5,0,1735,0,1772,20C1809.2,40,1846,80,1883,95C1920,110,1957,100,1994,85C2030.8,70,2068,50,2105,35C2141.5,20,2178,10,2215,15C2252.3,20,2289,40,2326,65C2363.1,90,2400,120,2437,130C2473.8,140,2511,130,2548,110C2584.6,90,2622,60,2640,45L2658.5,30L2658.5,300L2640,300C2621.5,300,2585,300,2548,300C2510.8,300,2474,300,2437,300C2400,300,2363,300,2326,300C2289.2,300,2252,300,2215,300C2178.5,300,2142,300,2105,300C2067.7,300,2031,300,1994,300C1956.9,300,1920,300,1883,300C1846.2,300,1809,300,1772,300C1735.4,300,1698,300,1662,300C1624.6,300,1588,300,1551,300C1513.8,300,1477,300,1440,300C1403.1,300,1366,300,1329,300C1292.3,300,1255,300,1218,300C1181.5,300,1145,300,1108,300C1070.8,300,1034,300,997,300C960,300,923,300,886,300C849.2,300,812,300,775,300C738.5,300,702,300,665,300C627.7,300,591,300,554,300C516.9,300,480,300,443,300C406.2,300,369,300,332,300C295.4,300,258,300,222,300C184.6,300,148,300,111,300C73.8,300,37,300,18,300L0,300Z"/><defs><linearGradient id="sw-gradient-1" x1="0" x2="0" y1="1" y2="0"><stop stop-color="rgba(255, 151, 14, 1)" offset="0%"/><stop stop-color="rgba(255, 151, 14, 1)" offset="100%"/></linearGradient></defs><path style="transform:translate(0, 50px); opacity:0.9" fill="url(#sw-gradient-1)" d="M0,150L18.5,165C36.9,180,74,210,111,230C147.7,250,185,260,222,255C258.5,250,295,230,332,215C369.2,200,406,190,443,180C480,170,517,160,554,130C590.8,100,628,50,665,65C701.5,80,738,160,775,205C812.3,250,849,260,886,255C923.1,250,960,230,997,225C1033.8,220,1071,230,1108,225C1144.6,220,1182,200,1218,180C1255.4,160,1292,140,1329,120C1366.2,100,1403,80,1440,95C1476.9,110,1514,160,1551,155C1587.7,150,1625,90,1662,65C1698.5,40,1735,50,1772,90C1809.2,130,1846,200,1883,230C1920,260,1957,250,1994,240C2030.8,230,2068,220,2105,190C2141.5,160,2178,110,2215,75C2252.3,40,2289,20,2326,45C2363.1,70,2400,140,2437,170C2473.8,200,2511,190,2548,200C2584.6,210,2622,240,2640,255L2658.5,270L2658.5,300L2640,300C2621.5,300,2585,300,2548,300C2510.8,300,2474,300,2437,300C2400,300,2363,300,2326,300C2289.2,300,2252,300,2215,300C2178.5,300,2142,300,2105,300C2067.7,300,2031,300,1994,300C1956.9,300,1920,300,1883,300C1846.2,300,1809,300,1772,300C1735.4,300,1698,300,1662,300C1624.6,300,1588,300,1551,300C1513.8,300,1477,300,1440,300C1403.1,300,1366,300,1329,300C1292.3,300,1255,300,1218,300C1181.5,300,1145,300,1108,300C1070.8,300,1034,300,997,300C960,300,923,300,886,300C849.2,300,812,300,775,300C738.5,300,702,300,665,300C627.7,300,591,300,554,300C516.9,300,480,300,443,300C406.2,300,369,300,332,300C295.4,300,258,300,222,300C184.6,300,148,300,111,300C73.8,300,37,300,18,300L0,300Z"/><defs><linearGradient id="sw-gradient-2" x1="0" x2="0" y1="1" y2="0"><stop stop-color="rgba(255, 182, 86, 1)" offset="0%"/><stop stop-color="rgba(255, 182, 86, 1)" offset="100%"/></linearGradient></defs><path style="transform:translate(0, 100px); opacity:0.8" fill="url(#sw-gradient-2)" d="M0,120L18.5,100C36.9,80,74,40,111,35C147.7,30,185,60,222,90C258.5,120,295,150,332,150C369.2,150,406,120,443,95C480,70,517,50,554,55C590.8,60,628,90,665,120C701.5,150,738,180,775,185C812.3,190,849,170,886,135C923.1,100,960,50,997,50C1033.8,50,1071,100,1108,110C1144.6,120,1182,90,1218,75C1255.4,60,1292,60,1329,80C1366.2,100,1403,140,1440,135C1476.9,130,1514,80,1551,95C1587.7,110,1625,190,1662,225C1698.5,260,1735,250,1772,235C1809.2,220,1846,200,1883,205C1920,210,1957,240,1994,210C2030.8,180,2068,90,2105,60C2141.5,30,2178,60,2215,75C2252.3,90,2289,90,2326,120C2363.1,150,2400,210,2437,210C2473.8,210,2511,150,2548,105C2584.6,60,2622,30,2640,15L2658.5,0L2658.5,300L2640,300C2621.5,300,2585,300,2548,300C2510.8,300,2474,300,2437,300C2400,300,2363,300,2326,300C2289.2,300,2252,300,2215,300C2178.5,300,2142,300,2105,300C2067.7,300,2031,300,1994,300C1956.9,300,1920,300,1883,300C1846.2,300,1809,300,1772,300C1735.4,300,1698,300,1662,300C1624.6,300,1588,300,1551,300C1513.8,300,1477,300,1440,300C1403.1,300,1366,300,1329,300C1292.3,300,1255,300,1218,300C1181.5,300,1145,300,1108,300C1070.8,300,1034,300,997,300C960,300,923,300,886,300C849.2,300,812,300,775,300C738.5,300,702,300,665,300C627.7,300,591,300,554,300C516.9,300,480,300,443,300C406.2,300,369,300,332,300C295.4,300,258,300,222,300C184.6,300,148,300,111,300C73.8,300,37,300,18,300L0,300Z"/><defs><linearGradient id="sw-gradient-3" x1="0" x2="0" y1="1" y2="0"><stop stop-color="rgba(252, 33, 0, 1)" offset="0%"/><stop stop-color="rgba(252, 33, 0, 1)" offset="100%"/></linearGradient></defs><path style="transform:translate(0, 150px); opacity:0.7" fill="url(#sw-gradient-3)" d="M0,120L18.5,105C36.9,90,74,60,111,80C147.7,100,185,170,222,200C258.5,230,295,220,332,190C369.2,160,406,110,443,105C480,100,517,140,554,140C590.8,140,628,100,665,75C701.5,50,738,40,775,35C812.3,30,849,30,886,35C923.1,40,960,50,997,70C1033.8,90,1071,120,1108,130C1144.6,140,1182,130,1218,105C1255.4,80,1292,40,1329,35C1366.2,30,1403,60,1440,85C1476.9,110,1514,130,1551,160C1587.7,190,1625,230,1662,210C1698.5,190,1735,110,1772,105C1809.2,100,1846,170,1883,170C1920,170,1957,100,1994,70C2030.8,40,2068,50,2105,60C2141.5,70,2178,80,2215,95C2252.3,110,2289,130,2326,160C2363.1,190,2400,230,2437,250C2473.8,270,2511,270,2548,260C2584.6,250,2622,230,2640,220L2658.5,210L2658.5,300L2640,300C2621.5,300,2585,300,2548,300C2510.8,300,2474,300,2437,300C2400,300,2363,300,2326,300C2289.2,300,2252,300,2215,300C2178.5,300,2142,300,2105,300C2067.7,300,2031,300,1994,300C1956.9,300,1920,300,1883,300C1846.2,300,1809,300,1772,300C1735.4,300,1698,300,1662,300C1624.6,300,1588,300,1551,300C1513.8,300,1477,300,1440,300C1403.1,300,1366,300,1329,300C1292.3,300,1255,300,1218,300C1181.5,300,1145,300,1108,300C1070.8,300,1034,300,997,300C960,300,923,300,886,300C849.2,300,812,300,775,300C738.5,300,702,300,665,300C627.7,300,591,300,554,300C516.9,300,480,300,443,300C406.2,300,369,300,332,300C295.4,300,258,300,222,300C184.6,300,148,300,111,300C73.8,300,37,300,18,300L0,300Z"/></svg>