<?xml version="1.0" standalone="no"?>
<svg xmlns:xlink="http://www.w3.org/1999/xlink" id="wave" style="transform:rotate(0deg); transition: 0.3s" viewBox="0 0 1440 300" version="1.1" xmlns="http://www.w3.org/2000/svg"><defs><linearGradient id="sw-gradient-0" x1="0" x2="0" y1="1" y2="0"><stop stop-color="rgba(253, 100, 77, 1)" offset="0%"/><stop stop-color="rgba(253, 100, 77, 1)" offset="100%"/></linearGradient></defs><path style="transform:translate(0, 0px); opacity:1" fill="url(#sw-gradient-0)" d="M0,180L18.5,150C36.9,120,74,60,111,35C147.7,10,185,20,222,60C258.5,100,295,170,332,165C369.2,160,406,80,443,85C480,90,517,180,554,215C590.8,250,628,230,665,200C701.5,170,738,130,775,115C812.3,100,849,110,886,100C923.1,90,960,60,997,70C1033.8,80,1071,130,1108,145C1144.6,160,1182,140,1218,135C1255.4,130,1292,140,1329,160C1366.2,180,1403,210,1440,195C1476.9,180,1514,120,1551,80C1587.7,40,1625,20,1662,15C1698.5,10,1735,20,1772,25C1809.2,30,1846,30,1883,35C1920,40,1957,50,1994,55C2030.8,60,2068,60,2105,95C2141.5,130,2178,200,2215,200C2252.3,200,2289,130,2326,130C2363.1,130,2400,200,2437,225C2473.8,250,2511,230,2548,210C2584.6,190,2622,170,2640,160L2658.5,150L2658.5,300L2640,300C2621.5,300,2585,300,2548,300C2510.8,300,2474,300,2437,300C2400,300,2363,300,2326,300C2289.2,300,2252,300,2215,300C2178.5,300,2142,300,2105,300C2067.7,300,2031,300,1994,300C1956.9,300,1920,300,1883,300C1846.2,300,1809,300,1772,300C1735.4,300,1698,300,1662,300C1624.6,300,1588,300,1551,300C1513.8,300,1477,300,1440,300C1403.1,300,1366,300,1329,300C1292.3,300,1255,300,1218,300C1181.5,300,1145,300,1108,300C1070.8,300,1034,300,997,300C960,300,923,300,886,300C849.2,300,812,300,775,300C738.5,300,702,300,665,300C627.7,300,591,300,554,300C516.9,300,480,300,443,300C406.2,300,369,300,332,300C295.4,300,258,300,222,300C184.6,300,148,300,111,300C73.8,300,37,300,18,300L0,300Z"/><defs><linearGradient id="sw-gradient-1" x1="0" x2="0" y1="1" y2="0"><stop stop-color="rgba(0, 118, 213, 1)" offset="0%"/><stop stop-color="rgba(0, 118, 213, 1)" offset="100%"/></linearGradient></defs><path style="transform:translate(0, 50px); opacity:0.9" fill="url(#sw-gradient-1)" d="M0,210L18.5,195C36.9,180,74,150,111,140C147.7,130,185,140,222,135C258.5,130,295,110,332,115C369.2,120,406,150,443,150C480,150,517,120,554,120C590.8,120,628,150,665,150C701.5,150,738,120,775,135C812.3,150,849,210,886,210C923.1,210,960,150,997,125C1033.8,100,1071,110,1108,110C1144.6,110,1182,100,1218,95C1255.4,90,1292,90,1329,90C1366.2,90,1403,90,1440,80C1476.9,70,1514,50,1551,80C1587.7,110,1625,190,1662,225C1698.5,260,1735,250,1772,205C1809.2,160,1846,80,1883,50C1920,20,1957,40,1994,60C2030.8,80,2068,100,2105,110C2141.5,120,2178,120,2215,120C2252.3,120,2289,120,2326,135C2363.1,150,2400,180,2437,185C2473.8,190,2511,170,2548,155C2584.6,140,2622,130,2640,125L2658.5,120L2658.5,300L2640,300C2621.5,300,2585,300,2548,300C2510.8,300,2474,300,2437,300C2400,300,2363,300,2326,300C2289.2,300,2252,300,2215,300C2178.5,300,2142,300,2105,300C2067.7,300,2031,300,1994,300C1956.9,300,1920,300,1883,300C1846.2,300,1809,300,1772,300C1735.4,300,1698,300,1662,300C1624.6,300,1588,300,1551,300C1513.8,300,1477,300,1440,300C1403.1,300,1366,300,1329,300C1292.3,300,1255,300,1218,300C1181.5,300,1145,300,1108,300C1070.8,300,1034,300,997,300C960,300,923,300,886,300C849.2,300,812,300,775,300C738.5,300,702,300,665,300C627.7,300,591,300,554,300C516.9,300,480,300,443,300C406.2,300,369,300,332,300C295.4,300,258,300,222,300C184.6,300,148,300,111,300C73.8,300,37,300,18,300L0,300Z"/><defs><linearGradient id="sw-gradient-2" x1="0" x2="0" y1="1" y2="0"><stop stop-color="rgba(255, 151, 14, 1)" offset="0%"/><stop stop-color="rgba(255, 151, 14, 1)" offset="100%"/></linearGradient></defs><path style="transform:translate(0, 100px); opacity:0.8" fill="url(#sw-gradient-2)" d="M0,180L18.5,175C36.9,170,74,160,111,150C147.7,140,185,130,222,115C258.5,100,295,80,332,75C369.2,70,406,80,443,115C480,150,517,210,554,235C590.8,260,628,250,665,235C701.5,220,738,200,775,175C812.3,150,849,120,886,100C923.1,80,960,70,997,65C1033.8,60,1071,60,1108,55C1144.6,50,1182,40,1218,65C1255.4,90,1292,150,1329,180C1366.2,210,1403,210,1440,180C1476.9,150,1514,90,1551,55C1587.7,20,1625,10,1662,25C1698.5,40,1735,80,1772,115C1809.2,150,1846,180,1883,190C1920,200,1957,190,1994,160C2030.8,130,2068,80,2105,55C2141.5,30,2178,30,2215,70C2252.3,110,2289,190,2326,210C2363.1,230,2400,190,2437,190C2473.8,190,2511,230,2548,210C2584.6,190,2622,110,2640,70L2658.5,30L2658.5,300L2640,300C2621.5,300,2585,300,2548,300C2510.8,300,2474,300,2437,300C2400,300,2363,300,2326,300C2289.2,300,2252,300,2215,300C2178.5,300,2142,300,2105,300C2067.7,300,2031,300,1994,300C1956.9,300,1920,300,1883,300C1846.2,300,1809,300,1772,300C1735.4,300,1698,300,1662,300C1624.6,300,1588,300,1551,300C1513.8,300,1477,300,1440,300C1403.1,300,1366,300,1329,300C1292.3,300,1255,300,1218,300C1181.5,300,1145,300,1108,300C1070.8,300,1034,300,997,300C960,300,923,300,886,300C849.2,300,812,300,775,300C738.5,300,702,300,665,300C627.7,300,591,300,554,300C516.9,300,480,300,443,300C406.2,300,369,300,332,300C295.4,300,258,300,222,300C184.6,300,148,300,111,300C73.8,300,37,300,18,300L0,300Z"/></svg>