<?xml version="1.0" standalone="no"?>
<svg xmlns:xlink="http://www.w3.org/1999/xlink" id="wave" style="transform:rotate(0deg); transition: 0.3s" viewBox="0 0 1440 290" version="1.1" xmlns="http://www.w3.org/2000/svg"><defs><linearGradient id="sw-gradient-0" x1="0" x2="0" y1="1" y2="0"><stop stop-color="rgba(255, 182, 86, 1)" offset="0%"/><stop stop-color="rgba(255, 182, 86, 1)" offset="100%"/></linearGradient></defs><path style="transform:translate(0, 0px); opacity:1" fill="url(#sw-gradient-0)" d="M0,174L26.7,154.7C53.3,135,107,97,160,111.2C213.3,126,267,193,320,217.5C373.3,242,427,222,480,217.5C533.3,213,587,222,640,222.3C693.3,222,747,213,800,174C853.3,135,907,68,960,67.7C1013.3,68,1067,135,1120,149.8C1173.3,164,1227,126,1280,120.8C1333.3,116,1387,145,1440,130.5C1493.3,116,1547,58,1600,38.7C1653.3,19,1707,39,1760,58C1813.3,77,1867,97,1920,87C1973.3,77,2027,39,2080,53.2C2133.3,68,2187,135,2240,169.2C2293.3,203,2347,203,2400,183.7C2453.3,164,2507,126,2560,106.3C2613.3,87,2667,87,2720,77.3C2773.3,68,2827,48,2880,58C2933.3,68,2987,106,3040,111.2C3093.3,116,3147,87,3200,67.7C3253.3,48,3307,39,3360,62.8C3413.3,87,3467,145,3520,169.2C3573.3,193,3627,184,3680,154.7C3733.3,126,3787,77,3813,53.2L3840,29L3840,290L3813.3,290C3786.7,290,3733,290,3680,290C3626.7,290,3573,290,3520,290C3466.7,290,3413,290,3360,290C3306.7,290,3253,290,3200,290C3146.7,290,3093,290,3040,290C2986.7,290,2933,290,2880,290C2826.7,290,2773,290,2720,290C2666.7,290,2613,290,2560,290C2506.7,290,2453,290,2400,290C2346.7,290,2293,290,2240,290C2186.7,290,2133,290,2080,290C2026.7,290,1973,290,1920,290C1866.7,290,1813,290,1760,290C1706.7,290,1653,290,1600,290C1546.7,290,1493,290,1440,290C1386.7,290,1333,290,1280,290C1226.7,290,1173,290,1120,290C1066.7,290,1013,290,960,290C906.7,290,853,290,800,290C746.7,290,693,290,640,290C586.7,290,533,290,480,290C426.7,290,373,290,320,290C266.7,290,213,290,160,290C106.7,290,53,290,27,290L0,290Z"/><defs><linearGradient id="sw-gradient-1" x1="0" x2="0" y1="1" y2="0"><stop stop-color="rgba(77, 159, 226, 1)" offset="0%"/><stop stop-color="rgba(77, 159, 226, 1)" offset="100%"/></linearGradient></defs><path style="transform:translate(0, 50px); opacity:0.9" fill="url(#sw-gradient-1)" d="M0,116L26.7,96.7C53.3,77,107,39,160,43.5C213.3,48,267,97,320,140.2C373.3,184,427,222,480,232C533.3,242,587,222,640,203C693.3,184,747,164,800,140.2C853.3,116,907,87,960,91.8C1013.3,97,1067,135,1120,140.2C1173.3,145,1227,116,1280,125.7C1333.3,135,1387,184,1440,169.2C1493.3,155,1547,77,1600,58C1653.3,39,1707,77,1760,111.2C1813.3,145,1867,174,1920,178.8C1973.3,184,2027,164,2080,149.8C2133.3,135,2187,126,2240,125.7C2293.3,126,2347,135,2400,120.8C2453.3,106,2507,68,2560,77.3C2613.3,87,2667,145,2720,145C2773.3,145,2827,87,2880,82.2C2933.3,77,2987,126,3040,154.7C3093.3,184,3147,193,3200,203C3253.3,213,3307,222,3360,207.8C3413.3,193,3467,155,3520,120.8C3573.3,87,3627,58,3680,82.2C3733.3,106,3787,184,3813,222.3L3840,261L3840,290L3813.3,290C3786.7,290,3733,290,3680,290C3626.7,290,3573,290,3520,290C3466.7,290,3413,290,3360,290C3306.7,290,3253,290,3200,290C3146.7,290,3093,290,3040,290C2986.7,290,2933,290,2880,290C2826.7,290,2773,290,2720,290C2666.7,290,2613,290,2560,290C2506.7,290,2453,290,2400,290C2346.7,290,2293,290,2240,290C2186.7,290,2133,290,2080,290C2026.7,290,1973,290,1920,290C1866.7,290,1813,290,1760,290C1706.7,290,1653,290,1600,290C1546.7,290,1493,290,1440,290C1386.7,290,1333,290,1280,290C1226.7,290,1173,290,1120,290C1066.7,290,1013,290,960,290C906.7,290,853,290,800,290C746.7,290,693,290,640,290C586.7,290,533,290,480,290C426.7,290,373,290,320,290C266.7,290,213,290,160,290C106.7,290,53,290,27,290L0,290Z"/><defs><linearGradient id="sw-gradient-2" x1="0" x2="0" y1="1" y2="0"><stop stop-color="rgba(0, 118, 213, 1)" offset="0%"/><stop stop-color="rgba(0, 118, 213, 1)" offset="100%"/></linearGradient></defs><path style="transform:translate(0, 100px); opacity:0.8" fill="url(#sw-gradient-2)" d="M0,145L26.7,149.8C53.3,155,107,164,160,183.7C213.3,203,267,232,320,241.7C373.3,251,427,242,480,236.8C533.3,232,587,232,640,212.7C693.3,193,747,155,800,120.8C853.3,87,907,58,960,77.3C1013.3,97,1067,164,1120,203C1173.3,242,1227,251,1280,227.2C1333.3,203,1387,145,1440,101.5C1493.3,58,1547,29,1600,48.3C1653.3,68,1707,135,1760,135.3C1813.3,135,1867,68,1920,67.7C1973.3,68,2027,135,2080,164.3C2133.3,193,2187,184,2240,169.2C2293.3,155,2347,135,2400,135.3C2453.3,135,2507,155,2560,159.5C2613.3,164,2667,155,2720,154.7C2773.3,155,2827,164,2880,164.3C2933.3,164,2987,155,3040,145C3093.3,135,3147,126,3200,135.3C3253.3,145,3307,174,3360,154.7C3413.3,135,3467,68,3520,43.5C3573.3,19,3627,39,3680,62.8C3733.3,87,3787,116,3813,130.5L3840,145L3840,290L3813.3,290C3786.7,290,3733,290,3680,290C3626.7,290,3573,290,3520,290C3466.7,290,3413,290,3360,290C3306.7,290,3253,290,3200,290C3146.7,290,3093,290,3040,290C2986.7,290,2933,290,2880,290C2826.7,290,2773,290,2720,290C2666.7,290,2613,290,2560,290C2506.7,290,2453,290,2400,290C2346.7,290,2293,290,2240,290C2186.7,290,2133,290,2080,290C2026.7,290,1973,290,1920,290C1866.7,290,1813,290,1760,290C1706.7,290,1653,290,1600,290C1546.7,290,1493,290,1440,290C1386.7,290,1333,290,1280,290C1226.7,290,1173,290,1120,290C1066.7,290,1013,290,960,290C906.7,290,853,290,800,290C746.7,290,693,290,640,290C586.7,290,533,290,480,290C426.7,290,373,290,320,290C266.7,290,213,290,160,290C106.7,290,53,290,27,290L0,290Z"/><defs><linearGradient id="sw-gradient-3" x1="0" x2="0" y1="1" y2="0"><stop stop-color="rgba(252, 33, 0, 1)" offset="0%"/><stop stop-color="rgba(252, 33, 0, 1)" offset="100%"/></linearGradient></defs><path style="transform:translate(0, 150px); opacity:0.7" fill="url(#sw-gradient-3)" d="M0,29L26.7,53.2C53.3,77,107,126,160,149.8C213.3,174,267,174,320,149.8C373.3,126,427,77,480,62.8C533.3,48,587,68,640,87C693.3,106,747,126,800,130.5C853.3,135,907,126,960,106.3C1013.3,87,1067,58,1120,43.5C1173.3,29,1227,29,1280,33.8C1333.3,39,1387,48,1440,72.5C1493.3,97,1547,135,1600,135.3C1653.3,135,1707,97,1760,96.7C1813.3,97,1867,135,1920,140.2C1973.3,145,2027,116,2080,120.8C2133.3,126,2187,164,2240,169.2C2293.3,174,2347,145,2400,111.2C2453.3,77,2507,39,2560,38.7C2613.3,39,2667,77,2720,120.8C2773.3,164,2827,213,2880,193.3C2933.3,174,2987,87,3040,53.2C3093.3,19,3147,39,3200,43.5C3253.3,48,3307,39,3360,72.5C3413.3,106,3467,184,3520,183.7C3573.3,184,3627,106,3680,96.7C3733.3,87,3787,145,3813,174L3840,203L3840,290L3813.3,290C3786.7,290,3733,290,3680,290C3626.7,290,3573,290,3520,290C3466.7,290,3413,290,3360,290C3306.7,290,3253,290,3200,290C3146.7,290,3093,290,3040,290C2986.7,290,2933,290,2880,290C2826.7,290,2773,290,2720,290C2666.7,290,2613,290,2560,290C2506.7,290,2453,290,2400,290C2346.7,290,2293,290,2240,290C2186.7,290,2133,290,2080,290C2026.7,290,1973,290,1920,290C1866.7,290,1813,290,1760,290C1706.7,290,1653,290,1600,290C1546.7,290,1493,290,1440,290C1386.7,290,1333,290,1280,290C1226.7,290,1173,290,1120,290C1066.7,290,1013,290,960,290C906.7,290,853,290,800,290C746.7,290,693,290,640,290C586.7,290,533,290,480,290C426.7,290,373,290,320,290C266.7,290,213,290,160,290C106.7,290,53,290,27,290L0,290Z"/></svg>