<?xml version="1.0" standalone="no"?>
<svg xmlns:xlink="http://www.w3.org/1999/xlink" id="wave" style="transform:rotate(0deg); transition: 0.3s" viewBox="0 0 1440 300" version="1.1" xmlns="http://www.w3.org/2000/svg"><defs><linearGradient id="sw-gradient-0" x1="0" x2="0" y1="1" y2="0"><stop stop-color="rgba(77, 159, 226, 1)" offset="0%"/><stop stop-color="rgba(77, 159, 226, 1)" offset="100%"/></linearGradient></defs><path style="transform:translate(0, 0px); opacity:1" fill="url(#sw-gradient-0)" d="M0,0L18.5,35C36.9,70,74,140,111,165C147.7,190,185,170,222,160C258.5,150,295,150,332,150C369.2,150,406,150,443,125C480,100,517,50,554,55C590.8,60,628,120,665,165C701.5,210,738,240,775,245C812.3,250,849,230,886,215C923.1,200,960,190,997,160C1033.8,130,1071,80,1108,50C1144.6,20,1182,10,1218,15C1255.4,20,1292,40,1329,45C1366.2,50,1403,40,1440,50C1476.9,60,1514,90,1551,90C1587.7,90,1625,60,1662,65C1698.5,70,1735,110,1772,150C1809.2,190,1846,230,1883,240C1920,250,1957,230,1994,225C2030.8,220,2068,230,2105,195C2141.5,160,2178,80,2215,60C2252.3,40,2289,80,2326,85C2363.1,90,2400,60,2437,55C2473.8,50,2511,70,2548,110C2584.6,150,2622,210,2640,240L2658.5,270L2658.5,300L2640,300C2621.5,300,2585,300,2548,300C2510.8,300,2474,300,2437,300C2400,300,2363,300,2326,300C2289.2,300,2252,300,2215,300C2178.5,300,2142,300,2105,300C2067.7,300,2031,300,1994,300C1956.9,300,1920,300,1883,300C1846.2,300,1809,300,1772,300C1735.4,300,1698,300,1662,300C1624.6,300,1588,300,1551,300C1513.8,300,1477,300,1440,300C1403.1,300,1366,300,1329,300C1292.3,300,1255,300,1218,300C1181.5,300,1145,300,1108,300C1070.8,300,1034,300,997,300C960,300,923,300,886,300C849.2,300,812,300,775,300C738.5,300,702,300,665,300C627.7,300,591,300,554,300C516.9,300,480,300,443,300C406.2,300,369,300,332,300C295.4,300,258,300,222,300C184.6,300,148,300,111,300C73.8,300,37,300,18,300L0,300Z"/><defs><linearGradient id="sw-gradient-1" x1="0" x2="0" y1="1" y2="0"><stop stop-color="rgba(255, 151, 14, 1)" offset="0%"/><stop stop-color="rgba(255, 151, 14, 1)" offset="100%"/></linearGradient></defs><path style="transform:translate(0, 50px); opacity:0.9" fill="url(#sw-gradient-1)" d="M0,90L18.5,110C36.9,130,74,170,111,175C147.7,180,185,150,222,130C258.5,110,295,100,332,115C369.2,130,406,170,443,175C480,180,517,150,554,140C590.8,130,628,140,665,120C701.5,100,738,50,775,60C812.3,70,849,140,886,160C923.1,180,960,150,997,145C1033.8,140,1071,160,1108,170C1144.6,180,1182,180,1218,190C1255.4,200,1292,220,1329,205C1366.2,190,1403,140,1440,130C1476.9,120,1514,150,1551,175C1587.7,200,1625,220,1662,200C1698.5,180,1735,120,1772,80C1809.2,40,1846,20,1883,15C1920,10,1957,20,1994,30C2030.8,40,2068,50,2105,70C2141.5,90,2178,120,2215,125C2252.3,130,2289,110,2326,105C2363.1,100,2400,110,2437,120C2473.8,130,2511,140,2548,150C2584.6,160,2622,170,2640,175L2658.5,180L2658.5,300L2640,300C2621.5,300,2585,300,2548,300C2510.8,300,2474,300,2437,300C2400,300,2363,300,2326,300C2289.2,300,2252,300,2215,300C2178.5,300,2142,300,2105,300C2067.7,300,2031,300,1994,300C1956.9,300,1920,300,1883,300C1846.2,300,1809,300,1772,300C1735.4,300,1698,300,1662,300C1624.6,300,1588,300,1551,300C1513.8,300,1477,300,1440,300C1403.1,300,1366,300,1329,300C1292.3,300,1255,300,1218,300C1181.5,300,1145,300,1108,300C1070.8,300,1034,300,997,300C960,300,923,300,886,300C849.2,300,812,300,775,300C738.5,300,702,300,665,300C627.7,300,591,300,554,300C516.9,300,480,300,443,300C406.2,300,369,300,332,300C295.4,300,258,300,222,300C184.6,300,148,300,111,300C73.8,300,37,300,18,300L0,300Z"/><defs><linearGradient id="sw-gradient-2" x1="0" x2="0" y1="1" y2="0"><stop stop-color="rgba(255, 182, 86, 1)" offset="0%"/><stop stop-color="rgba(255, 182, 86, 1)" offset="100%"/></linearGradient></defs><path style="transform:translate(0, 100px); opacity:0.8" fill="url(#sw-gradient-2)" d="M0,90L18.5,80C36.9,70,74,50,111,55C147.7,60,185,90,222,120C258.5,150,295,180,332,205C369.2,230,406,250,443,245C480,240,517,210,554,165C590.8,120,628,60,665,60C701.5,60,738,120,775,145C812.3,170,849,160,886,160C923.1,160,960,170,997,165C1033.8,160,1071,140,1108,130C1144.6,120,1182,120,1218,130C1255.4,140,1292,160,1329,145C1366.2,130,1403,80,1440,90C1476.9,100,1514,170,1551,200C1587.7,230,1625,220,1662,210C1698.5,200,1735,190,1772,170C1809.2,150,1846,120,1883,110C1920,100,1957,110,1994,125C2030.8,140,2068,160,2105,170C2141.5,180,2178,180,2215,185C2252.3,190,2289,200,2326,175C2363.1,150,2400,90,2437,65C2473.8,40,2511,50,2548,65C2584.6,80,2622,100,2640,110L2658.5,120L2658.5,300L2640,300C2621.5,300,2585,300,2548,300C2510.8,300,2474,300,2437,300C2400,300,2363,300,2326,300C2289.2,300,2252,300,2215,300C2178.5,300,2142,300,2105,300C2067.7,300,2031,300,1994,300C1956.9,300,1920,300,1883,300C1846.2,300,1809,300,1772,300C1735.4,300,1698,300,1662,300C1624.6,300,1588,300,1551,300C1513.8,300,1477,300,1440,300C1403.1,300,1366,300,1329,300C1292.3,300,1255,300,1218,300C1181.5,300,1145,300,1108,300C1070.8,300,1034,300,997,300C960,300,923,300,886,300C849.2,300,812,300,775,300C738.5,300,702,300,665,300C627.7,300,591,300,554,300C516.9,300,480,300,443,300C406.2,300,369,300,332,300C295.4,300,258,300,222,300C184.6,300,148,300,111,300C73.8,300,37,300,18,300L0,300Z"/><defs><linearGradient id="sw-gradient-3" x1="0" x2="0" y1="1" y2="0"><stop stop-color="rgba(252, 33, 0, 1)" offset="0%"/><stop stop-color="rgba(252, 33, 0, 1)" offset="100%"/></linearGradient></defs><path style="transform:translate(0, 150px); opacity:0.7" fill="url(#sw-gradient-3)" d="M0,180L18.5,185C36.9,190,74,200,111,180C147.7,160,185,110,222,95C258.5,80,295,100,332,125C369.2,150,406,180,443,180C480,180,517,150,554,115C590.8,80,628,40,665,50C701.5,60,738,120,775,120C812.3,120,849,60,886,40C923.1,20,960,40,997,40C1033.8,40,1071,20,1108,35C1144.6,50,1182,100,1218,135C1255.4,170,1292,190,1329,165C1366.2,140,1403,70,1440,65C1476.9,60,1514,120,1551,160C1587.7,200,1625,220,1662,210C1698.5,200,1735,160,1772,160C1809.2,160,1846,200,1883,200C1920,200,1957,160,1994,120C2030.8,80,2068,40,2105,65C2141.5,90,2178,180,2215,195C2252.3,210,2289,150,2326,115C2363.1,80,2400,70,2437,75C2473.8,80,2511,100,2548,105C2584.6,110,2622,100,2640,95L2658.5,90L2658.5,300L2640,300C2621.5,300,2585,300,2548,300C2510.8,300,2474,300,2437,300C2400,300,2363,300,2326,300C2289.2,300,2252,300,2215,300C2178.5,300,2142,300,2105,300C2067.7,300,2031,300,1994,300C1956.9,300,1920,300,1883,300C1846.2,300,1809,300,1772,300C1735.4,300,1698,300,1662,300C1624.6,300,1588,300,1551,300C1513.8,300,1477,300,1440,300C1403.1,300,1366,300,1329,300C1292.3,300,1255,300,1218,300C1181.5,300,1145,300,1108,300C1070.8,300,1034,300,997,300C960,300,923,300,886,300C849.2,300,812,300,775,300C738.5,300,702,300,665,300C627.7,300,591,300,554,300C516.9,300,480,300,443,300C406.2,300,369,300,332,300C295.4,300,258,300,222,300C184.6,300,148,300,111,300C73.8,300,37,300,18,300L0,300Z"/></svg>