<?xml version="1.0" standalone="no"?>
<svg xmlns:xlink="http://www.w3.org/1999/xlink" id="wave" style="transform:rotate(0deg); transition: 0.3s" viewBox="0 0 1440 300" version="1.1" xmlns="http://www.w3.org/2000/svg"><defs><linearGradient id="sw-gradient-0" x1="0" x2="0" y1="1" y2="0"><stop stop-color="rgba(77, 159, 226, 1)" offset="0%"/><stop stop-color="rgba(77, 159, 226, 1)" offset="100%"/></linearGradient></defs><path style="transform:translate(0, 0px); opacity:1" fill="url(#sw-gradient-0)" d="M0,270L18.5,250C36.9,230,74,190,111,145C147.7,100,185,50,222,65C258.5,80,295,160,332,190C369.2,220,406,200,443,160C480,120,517,60,554,50C590.8,40,628,80,665,105C701.5,130,738,140,775,125C812.3,110,849,70,886,85C923.1,100,960,170,997,185C1033.8,200,1071,160,1108,120C1144.6,80,1182,40,1218,20C1255.4,0,1292,0,1329,30C1366.2,60,1403,120,1440,140C1476.9,160,1514,140,1551,140C1587.7,140,1625,160,1662,145C1698.5,130,1735,80,1772,50C1809.2,20,1846,10,1883,10C1920,10,1957,20,1994,65C2030.8,110,2068,190,2105,190C2141.5,190,2178,110,2215,80C2252.3,50,2289,70,2326,110C2363.1,150,2400,210,2437,225C2473.8,240,2511,210,2548,165C2584.6,120,2622,60,2640,30L2658.5,0L2658.5,300L2640,300C2621.5,300,2585,300,2548,300C2510.8,300,2474,300,2437,300C2400,300,2363,300,2326,300C2289.2,300,2252,300,2215,300C2178.5,300,2142,300,2105,300C2067.7,300,2031,300,1994,300C1956.9,300,1920,300,1883,300C1846.2,300,1809,300,1772,300C1735.4,300,1698,300,1662,300C1624.6,300,1588,300,1551,300C1513.8,300,1477,300,1440,300C1403.1,300,1366,300,1329,300C1292.3,300,1255,300,1218,300C1181.5,300,1145,300,1108,300C1070.8,300,1034,300,997,300C960,300,923,300,886,300C849.2,300,812,300,775,300C738.5,300,702,300,665,300C627.7,300,591,300,554,300C516.9,300,480,300,443,300C406.2,300,369,300,332,300C295.4,300,258,300,222,300C184.6,300,148,300,111,300C73.8,300,37,300,18,300L0,300Z"/><defs><linearGradient id="sw-gradient-1" x1="0" x2="0" y1="1" y2="0"><stop stop-color="rgba(255, 151, 14, 1)" offset="0%"/><stop stop-color="rgba(255, 151, 14, 1)" offset="100%"/></linearGradient></defs><path style="transform:translate(0, 50px); opacity:0.9" fill="url(#sw-gradient-1)" d="M0,120L18.5,140C36.9,160,74,200,111,190C147.7,180,185,120,222,120C258.5,120,295,180,332,215C369.2,250,406,260,443,220C480,180,517,90,554,50C590.8,10,628,20,665,30C701.5,40,738,50,775,50C812.3,50,849,40,886,60C923.1,80,960,130,997,170C1033.8,210,1071,240,1108,240C1144.6,240,1182,210,1218,210C1255.4,210,1292,240,1329,235C1366.2,230,1403,190,1440,165C1476.9,140,1514,130,1551,115C1587.7,100,1625,80,1662,100C1698.5,120,1735,180,1772,190C1809.2,200,1846,160,1883,135C1920,110,1957,100,1994,120C2030.8,140,2068,190,2105,185C2141.5,180,2178,120,2215,105C2252.3,90,2289,120,2326,150C2363.1,180,2400,210,2437,205C2473.8,200,2511,160,2548,140C2584.6,120,2622,120,2640,120L2658.5,120L2658.5,300L2640,300C2621.5,300,2585,300,2548,300C2510.8,300,2474,300,2437,300C2400,300,2363,300,2326,300C2289.2,300,2252,300,2215,300C2178.5,300,2142,300,2105,300C2067.7,300,2031,300,1994,300C1956.9,300,1920,300,1883,300C1846.2,300,1809,300,1772,300C1735.4,300,1698,300,1662,300C1624.6,300,1588,300,1551,300C1513.8,300,1477,300,1440,300C1403.1,300,1366,300,1329,300C1292.3,300,1255,300,1218,300C1181.5,300,1145,300,1108,300C1070.8,300,1034,300,997,300C960,300,923,300,886,300C849.2,300,812,300,775,300C738.5,300,702,300,665,300C627.7,300,591,300,554,300C516.9,300,480,300,443,300C406.2,300,369,300,332,300C295.4,300,258,300,222,300C184.6,300,148,300,111,300C73.8,300,37,300,18,300L0,300Z"/><defs><linearGradient id="sw-gradient-2" x1="0" x2="0" y1="1" y2="0"><stop stop-color="rgba(252, 33, 0, 1)" offset="0%"/><stop stop-color="rgba(252, 33, 0, 1)" offset="100%"/></linearGradient></defs><path style="transform:translate(0, 100px); opacity:0.8" fill="url(#sw-gradient-2)" d="M0,30L18.5,65C36.9,100,74,170,111,200C147.7,230,185,220,222,220C258.5,220,295,230,332,220C369.2,210,406,180,443,155C480,130,517,110,554,85C590.8,60,628,30,665,40C701.5,50,738,100,775,105C812.3,110,849,70,886,85C923.1,100,960,170,997,170C1033.8,170,1071,100,1108,65C1144.6,30,1182,30,1218,55C1255.4,80,1292,130,1329,155C1366.2,180,1403,180,1440,155C1476.9,130,1514,80,1551,75C1587.7,70,1625,110,1662,150C1698.5,190,1735,230,1772,205C1809.2,180,1846,90,1883,65C1920,40,1957,80,1994,85C2030.8,90,2068,60,2105,65C2141.5,70,2178,110,2215,140C2252.3,170,2289,190,2326,190C2363.1,190,2400,170,2437,155C2473.8,140,2511,130,2548,150C2584.6,170,2622,220,2640,245L2658.5,270L2658.5,300L2640,300C2621.5,300,2585,300,2548,300C2510.8,300,2474,300,2437,300C2400,300,2363,300,2326,300C2289.2,300,2252,300,2215,300C2178.5,300,2142,300,2105,300C2067.7,300,2031,300,1994,300C1956.9,300,1920,300,1883,300C1846.2,300,1809,300,1772,300C1735.4,300,1698,300,1662,300C1624.6,300,1588,300,1551,300C1513.8,300,1477,300,1440,300C1403.1,300,1366,300,1329,300C1292.3,300,1255,300,1218,300C1181.5,300,1145,300,1108,300C1070.8,300,1034,300,997,300C960,300,923,300,886,300C849.2,300,812,300,775,300C738.5,300,702,300,665,300C627.7,300,591,300,554,300C516.9,300,480,300,443,300C406.2,300,369,300,332,300C295.4,300,258,300,222,300C184.6,300,148,300,111,300C73.8,300,37,300,18,300L0,300Z"/></svg>