<?xml version="1.0" standalone="no"?>
<svg xmlns:xlink="http://www.w3.org/1999/xlink" id="wave" style="transform:rotate(0deg); transition: 0.3s" viewBox="0 0 1440 290" version="1.1" xmlns="http://www.w3.org/2000/svg"><defs><linearGradient id="sw-gradient-0" x1="0" x2="0" y1="1" y2="0"><stop stop-color="rgba(255, 182, 86, 1)" offset="0%"/><stop stop-color="rgba(255, 182, 86, 1)" offset="100%"/></linearGradient></defs><path style="transform:translate(0, 0px); opacity:1" fill="url(#sw-gradient-0)" d="M0,232L26.7,203C53.3,174,107,116,160,120.8C213.3,126,267,193,320,207.8C373.3,222,427,184,480,169.2C533.3,155,587,164,640,145C693.3,126,747,77,800,77.3C853.3,77,907,126,960,164.3C1013.3,203,1067,232,1120,232C1173.3,232,1227,203,1280,188.5C1333.3,174,1387,174,1440,183.7C1493.3,193,1547,213,1600,222.3C1653.3,232,1707,232,1760,227.2C1813.3,222,1867,213,1920,188.5C1973.3,164,2027,126,2080,111.2C2133.3,97,2187,106,2240,120.8C2293.3,135,2347,155,2400,149.8C2453.3,145,2507,116,2560,101.5C2613.3,87,2667,87,2720,77.3C2773.3,68,2827,48,2880,48.3C2933.3,48,2987,68,3040,77.3C3093.3,87,3147,87,3200,96.7C3253.3,106,3307,126,3360,149.8C3413.3,174,3467,203,3520,188.5C3573.3,174,3627,116,3680,87C3733.3,58,3787,58,3813,58L3840,58L3840,290L3813.3,290C3786.7,290,3733,290,3680,290C3626.7,290,3573,290,3520,290C3466.7,290,3413,290,3360,290C3306.7,290,3253,290,3200,290C3146.7,290,3093,290,3040,290C2986.7,290,2933,290,2880,290C2826.7,290,2773,290,2720,290C2666.7,290,2613,290,2560,290C2506.7,290,2453,290,2400,290C2346.7,290,2293,290,2240,290C2186.7,290,2133,290,2080,290C2026.7,290,1973,290,1920,290C1866.7,290,1813,290,1760,290C1706.7,290,1653,290,1600,290C1546.7,290,1493,290,1440,290C1386.7,290,1333,290,1280,290C1226.7,290,1173,290,1120,290C1066.7,290,1013,290,960,290C906.7,290,853,290,800,290C746.7,290,693,290,640,290C586.7,290,533,290,480,290C426.7,290,373,290,320,290C266.7,290,213,290,160,290C106.7,290,53,290,27,290L0,290Z"/><defs><linearGradient id="sw-gradient-1" x1="0" x2="0" y1="1" y2="0"><stop stop-color="rgba(77, 159, 226, 1)" offset="0%"/><stop stop-color="rgba(77, 159, 226, 1)" offset="100%"/></linearGradient></defs><path style="transform:translate(0, 50px); opacity:0.9" fill="url(#sw-gradient-1)" d="M0,174L26.7,145C53.3,116,107,58,160,58C213.3,58,267,116,320,130.5C373.3,145,427,116,480,96.7C533.3,77,587,68,640,91.8C693.3,116,747,174,800,164.3C853.3,155,907,77,960,53.2C1013.3,29,1067,58,1120,67.7C1173.3,77,1227,68,1280,96.7C1333.3,126,1387,193,1440,203C1493.3,213,1547,164,1600,145C1653.3,126,1707,135,1760,145C1813.3,155,1867,164,1920,183.7C1973.3,203,2027,232,2080,236.8C2133.3,242,2187,222,2240,217.5C2293.3,213,2347,222,2400,203C2453.3,184,2507,135,2560,96.7C2613.3,58,2667,29,2720,14.5C2773.3,0,2827,0,2880,38.7C2933.3,77,2987,155,3040,178.8C3093.3,203,3147,174,3200,174C3253.3,174,3307,203,3360,222.3C3413.3,242,3467,251,3520,246.5C3573.3,242,3627,222,3680,207.8C3733.3,193,3787,184,3813,178.8L3840,174L3840,290L3813.3,290C3786.7,290,3733,290,3680,290C3626.7,290,3573,290,3520,290C3466.7,290,3413,290,3360,290C3306.7,290,3253,290,3200,290C3146.7,290,3093,290,3040,290C2986.7,290,2933,290,2880,290C2826.7,290,2773,290,2720,290C2666.7,290,2613,290,2560,290C2506.7,290,2453,290,2400,290C2346.7,290,2293,290,2240,290C2186.7,290,2133,290,2080,290C2026.7,290,1973,290,1920,290C1866.7,290,1813,290,1760,290C1706.7,290,1653,290,1600,290C1546.7,290,1493,290,1440,290C1386.7,290,1333,290,1280,290C1226.7,290,1173,290,1120,290C1066.7,290,1013,290,960,290C906.7,290,853,290,800,290C746.7,290,693,290,640,290C586.7,290,533,290,480,290C426.7,290,373,290,320,290C266.7,290,213,290,160,290C106.7,290,53,290,27,290L0,290Z"/><defs><linearGradient id="sw-gradient-2" x1="0" x2="0" y1="1" y2="0"><stop stop-color="rgba(0, 118, 213, 1)" offset="0%"/><stop stop-color="rgba(0, 118, 213, 1)" offset="100%"/></linearGradient></defs><path style="transform:translate(0, 100px); opacity:0.8" fill="url(#sw-gradient-2)" d="M0,145L26.7,154.7C53.3,164,107,184,160,159.5C213.3,135,267,68,320,48.3C373.3,29,427,58,480,58C533.3,58,587,29,640,38.7C693.3,48,747,97,800,101.5C853.3,106,907,68,960,77.3C1013.3,87,1067,145,1120,164.3C1173.3,184,1227,164,1280,154.7C1333.3,145,1387,145,1440,145C1493.3,145,1547,145,1600,130.5C1653.3,116,1707,87,1760,82.2C1813.3,77,1867,97,1920,101.5C1973.3,106,2027,97,2080,96.7C2133.3,97,2187,106,2240,96.7C2293.3,87,2347,58,2400,67.7C2453.3,77,2507,126,2560,135.3C2613.3,145,2667,116,2720,120.8C2773.3,126,2827,164,2880,174C2933.3,184,2987,164,3040,159.5C3093.3,155,3147,164,3200,183.7C3253.3,203,3307,232,3360,236.8C3413.3,242,3467,222,3520,183.7C3573.3,145,3627,87,3680,58C3733.3,29,3787,29,3813,29L3840,29L3840,290L3813.3,290C3786.7,290,3733,290,3680,290C3626.7,290,3573,290,3520,290C3466.7,290,3413,290,3360,290C3306.7,290,3253,290,3200,290C3146.7,290,3093,290,3040,290C2986.7,290,2933,290,2880,290C2826.7,290,2773,290,2720,290C2666.7,290,2613,290,2560,290C2506.7,290,2453,290,2400,290C2346.7,290,2293,290,2240,290C2186.7,290,2133,290,2080,290C2026.7,290,1973,290,1920,290C1866.7,290,1813,290,1760,290C1706.7,290,1653,290,1600,290C1546.7,290,1493,290,1440,290C1386.7,290,1333,290,1280,290C1226.7,290,1173,290,1120,290C1066.7,290,1013,290,960,290C906.7,290,853,290,800,290C746.7,290,693,290,640,290C586.7,290,533,290,480,290C426.7,290,373,290,320,290C266.7,290,213,290,160,290C106.7,290,53,290,27,290L0,290Z"/><defs><linearGradient id="sw-gradient-3" x1="0" x2="0" y1="1" y2="0"><stop stop-color="rgba(252, 33, 0, 1)" offset="0%"/><stop stop-color="rgba(252, 33, 0, 1)" offset="100%"/></linearGradient></defs><path style="transform:translate(0, 150px); opacity:0.7" fill="url(#sw-gradient-3)" d="M0,29L26.7,67.7C53.3,106,107,184,160,203C213.3,222,267,184,320,149.8C373.3,116,427,87,480,77.3C533.3,68,587,77,640,96.7C693.3,116,747,145,800,145C853.3,145,907,116,960,91.8C1013.3,68,1067,48,1120,38.7C1173.3,29,1227,29,1280,62.8C1333.3,97,1387,164,1440,193.3C1493.3,222,1547,213,1600,198.2C1653.3,184,1707,164,1760,145C1813.3,126,1867,106,1920,91.8C1973.3,77,2027,68,2080,67.7C2133.3,68,2187,77,2240,91.8C2293.3,106,2347,126,2400,154.7C2453.3,184,2507,222,2560,227.2C2613.3,232,2667,203,2720,203C2773.3,203,2827,232,2880,236.8C2933.3,242,2987,222,3040,188.5C3093.3,155,3147,106,3200,111.2C3253.3,116,3307,174,3360,169.2C3413.3,164,3467,97,3520,58C3573.3,19,3627,10,3680,43.5C3733.3,77,3787,155,3813,193.3L3840,232L3840,290L3813.3,290C3786.7,290,3733,290,3680,290C3626.7,290,3573,290,3520,290C3466.7,290,3413,290,3360,290C3306.7,290,3253,290,3200,290C3146.7,290,3093,290,3040,290C2986.7,290,2933,290,2880,290C2826.7,290,2773,290,2720,290C2666.7,290,2613,290,2560,290C2506.7,290,2453,290,2400,290C2346.7,290,2293,290,2240,290C2186.7,290,2133,290,2080,290C2026.7,290,1973,290,1920,290C1866.7,290,1813,290,1760,290C1706.7,290,1653,290,1600,290C1546.7,290,1493,290,1440,290C1386.7,290,1333,290,1280,290C1226.7,290,1173,290,1120,290C1066.7,290,1013,290,960,290C906.7,290,853,290,800,290C746.7,290,693,290,640,290C586.7,290,533,290,480,290C426.7,290,373,290,320,290C266.7,290,213,290,160,290C106.7,290,53,290,27,290L0,290Z"/></svg>